<?xml version="1.0" encoding="UTF-8" standalone="no"?>
<svg width="16px" height="16px" viewBox="0 0 16 16" version="1.1" xmlns="http://www.w3.org/2000/svg" xmlns:xlink="http://www.w3.org/1999/xlink" xmlns:sketch="http://www.bohemiancoding.com/sketch/ns">
    <!-- Generator: Sketch 3.0.3 (7891) - http://www.bohemiancoding.com/sketch -->
    <title>Artboard 1</title>
    <desc>Created with Sketch.</desc>
    <defs></defs>
    <g id="Page-1" stroke="none" stroke-width="1" fill="none" fill-rule="evenodd" sketch:type="MSPage">
        <g id="Artboard-1" sketch:type="MSArtboardGroup">
            <path d="M11.1597858,5.04229432 C11.0926824,5.14223638 11.0280643,5.21465817 10.9535049,5.25521437 C10.8826736,5.29577057 10.7932023,5.3174971 10.6813633,5.3174971 C10.5657963,5.3174971 10.4415308,5.28563152 10.3060813,5.22190035 C10.1743598,5.15961761 10.0215132,5.08864426 9.84505604,5.01042874 C9.66859893,4.93076477 9.46977402,4.85834299 9.24733865,4.79750869 C9.01869,4.73377752 8.75648964,4.70191194 8.45452431,4.70191194 C7.97982983,4.70191194 7.60827577,4.79895713 7.33489152,4.99594438 C7.05902195,5.19003476 6.92605779,5.44495944 6.92605779,5.75926999 C6.92605779,5.96784473 6.99688917,6.14310545 7.13482395,6.28360371 C7.27151608,6.42699884 7.46039974,6.55156431 7.68904839,6.65874855 C7.9189397,6.76593279 8.18114005,6.86152955 8.47192149,6.94698725 C8.76146027,7.03244496 9.0634256,7.12514484 9.36911891,7.22508691 C9.67108424,7.3264774 9.97304958,7.44090382 10.263831,7.57126304 C10.5546124,7.70017381 10.8168128,7.86384705 11.0479468,8.06228273 C11.2778381,8.26071842 11.4617511,8.49971031 11.6021712,8.77636153 C11.7413486,9.05011587 11.8134227,9.38760139 11.8134227,9.77867903 C11.8134227,10.24073 11.7251941,10.6709154 11.5499797,11.0677868 C11.3747652,11.4603129 11.1162928,11.8035921 10.7807758,12.088934 C10.4427734,12.3757242 10.0264838,12.6016802 9.52942149,12.7610081 C9.03360187,12.9217845 8.46570821,13 7.8207699,13 C7.47655427,13 7.14103723,12.9695829 6.81297612,12.910197 C6.48118705,12.8508111 6.16928047,12.763905 5.86731513,12.6567207 C5.56783511,12.5538818 5.28699492,12.4264195 5.03100784,12.2801275 C4.77502077,12.1352839 4.54512946,11.9788528 4.35500314,11.8079374 L4.90674227,10.9243917 C4.9788163,10.815759 5.06207424,10.7303013 5.16024404,10.6752607 C5.25717118,10.6158749 5.38143675,10.5869061 5.53055544,10.5869061 C5.67967412,10.5869061 5.8176089,10.6274623 5.95430103,10.7114716 C6.08726519,10.7940324 6.24011184,10.8780417 6.41656895,10.9750869 C6.59178341,11.0706837 6.7968216,11.1619351 7.03292618,11.2430475 C7.26903077,11.3256083 7.5709961,11.3647161 7.93509422,11.3647161 C8.21966238,11.3647161 8.46570821,11.3328505 8.67447437,11.2676709 C8.87454194,11.2010429 9.04478577,11.1141367 9.17650727,11.0055041 C9.30698612,10.8997683 9.40888389,10.7752028 9.46853136,10.6332561 C9.52942149,10.4869641 9.56048788,10.3435689 9.56048788,10.1900348 C9.56048788,9.9684241 9.48841385,9.7815759 9.34923641,9.63238702 C9.21005898,9.48464658 9.02366062,9.36297798 8.79749728,9.25434531 C8.56760598,9.15005794 8.30540562,9.05446118 8.00965357,8.96755504 C7.71390151,8.88209733 7.41442148,8.79084589 7.1025149,8.68945539 C6.79433629,8.58661645 6.49734157,8.4707416 6.19786155,8.33603708 C5.90583746,8.20133256 5.64239445,8.02896871 5.41250315,7.81894554 C5.18136918,7.61181924 4.99745614,7.35979143 4.85579339,7.05561993 C4.7153733,6.75289687 4.64702723,6.38644264 4.64702723,5.95915411 C4.64702723,5.56228273 4.7265572,5.18424102 4.89058775,4.82358053 C5.05337565,4.46436848 5.28948023,4.15150637 5.60511478,3.88354577 C5.91577871,3.61558517 6.31094322,3.40121669 6.78066707,3.24188876 C7.25287624,3.0811124 7.7984021,3 8.41475933,3 C9.10070527,3 9.72451844,3.11008111 10.2924121,3.33024334 C10.8565778,3.551854 11.3263016,3.84154114 11.7065543,4.20075319 L11.1597858,5.04229432" id="Fill-117" fill="#EE313B" sketch:type="MSShapeGroup"></path>
            <path d="M0,15 L0,1 L2.50763924,1 L2.50763924,1.87849057 C2.50763924,2.03245283 2.46563713,2.16377358 2.38163292,2.27245283 C2.29649351,2.38113208 2.19092065,2.4354717 2.06037357,2.4354717 L1.44396429,2.4354717 L1.44396429,13.5615094 L2.06037357,13.5615094 C2.19092065,13.5615094 2.29649351,13.6173585 2.38163292,13.7275472 C2.46336675,13.8332075 2.50536885,13.9630189 2.50536885,14.1124528 L2.50536885,15 L0,15" id="Fill-116" fill="#414042" sketch:type="MSShapeGroup"></path>
            <path d="M13.4923608,15 L13.4923608,1 L16,1 L16,1.87849057 C16,2.03245283 15.9579979,2.16377358 15.8739937,2.27245283 C15.7888543,2.38113208 15.6832814,2.4354717 15.5527343,2.4354717 L14.9363251,2.4354717 L14.9363251,13.5615094 L15.5527343,13.5615094 C15.6832814,13.5615094 15.7888543,13.6173585 15.8739937,13.7275472 C15.9557275,13.8332075 15.9977296,13.9630189 15.9977296,14.1124528 L15.9977296,15 L13.4923608,15" id="Fill-118" fill="#414042" sketch:type="MSShapeGroup" transform="translate(14.746180, 8.000000) scale(-1, -1) translate(-14.746180, -8.000000) "></path>
        </g>
    </g>
</svg>