<?xml version="1.0" encoding="UTF-8" standalone="no"?>
<svg width="16px" height="16px" viewBox="0 0 16 16" version="1.1" xmlns="http://www.w3.org/2000/svg" xmlns:xlink="http://www.w3.org/1999/xlink" xmlns:sketch="http://www.bohemiancoding.com/sketch/ns">
    <!-- Generator: Sketch 3.0.3 (7891) - http://www.bohemiancoding.com/sketch -->
    <title>Artboard 1</title>
    <desc>Created with Sketch.</desc>
    <defs></defs>
    <g id="Page-1" stroke="none" stroke-width="1" fill="none" fill-rule="evenodd" sketch:type="MSPage">
        <g id="Artboard-1" sketch:type="MSArtboardGroup">
            <path d="M9.768,3 C3.86628571,3 2.736,9.00836364 2.28571429,10.0932727 C2.28571429,10.0932727 5.72685714,14.1185455 10.4308571,13.6091818 C10.4011429,13.4874545 10.3862857,13.3586364 10.3862857,13.2239091 C10.3862857,12.3280909 11.0468571,11.6048182 11.8662857,11.6048182 C12.5314286,11.6048182 13.0914286,12.0858182 13.2777143,12.7476364 C14.2182857,12.2760909 15.1897143,11.5906364 16.1737143,10.6404545 C16.1737143,10.6392727 15.6697143,3 9.768,3 Z M4.78514286,7.34554545 C4.44228571,6.98390909 6.32571429,5.015 7.43085714,4.39927273 C8.73371429,3.67363636 11.1965714,4.03881818 11.04,4.33072727 C10.8834286,4.62854545 8.89257143,4.365 7.46171429,5.11663636 C6.02857143,5.873 5.12685714,7.706 4.78514286,7.34554545 Z M12.4102857,5.25018182 C12.2525714,5.54327273 10.2605714,5.28209091 8.82971429,6.03727273 C7.39657143,6.78890909 6.49485714,8.62309091 6.15314286,8.26381818 C5.81142857,7.90336364 7.69371429,5.92972727 8.80114286,5.314 C10.1028571,4.59072727 12.5657143,4.95472727 12.4102857,5.25018182 Z" id="Fill-18" fill="#EE313B" sketch:type="MSShapeGroup"></path>
            <path d="M0.0646801056,12.6948758 C0.465826027,13.1886586 6.23598148,19.8780799 15,12.6948758 C15,12.6948758 11.1717395,15.1604534 6.87716785,14.3700648 C5.00316156,14.0251659 3.04036241,13.0602804 1.26811787,11 C1.26811787,11 -0.337598996,12.2033174 0.0646801056,12.6948758 Z" id="Fill-17" fill="#58595B" sketch:type="MSShapeGroup"></path>
        </g>
    </g>
</svg>