<?xml version="1.0" encoding="UTF-8" standalone="no"?>
<svg width="16px" height="16px" viewBox="0 0 16 16" version="1.1" xmlns="http://www.w3.org/2000/svg" xmlns:xlink="http://www.w3.org/1999/xlink" xmlns:sketch="http://www.bohemiancoding.com/sketch/ns">
    <!-- Generator: Sketch 3.0.3 (7891) - http://www.bohemiancoding.com/sketch -->
    <title>Artboard 1</title>
    <desc>Created with Sketch.</desc>
    <defs></defs>
    <g id="Page-1" stroke="none" stroke-width="1" fill="none" fill-rule="evenodd" sketch:type="MSPage">
        <g id="Artboard-1" sketch:type="MSArtboardGroup">
            <path d="M12.512,11.1008064 L9.20571429,11.1008064 C10.5611429,10.4822733 11.6091429,8.8663268 11.9348571,7.30287579 C11.9737143,7.30744061 12.0068571,7.32569989 12.0468571,7.32569989 C12.5977143,7.32569989 12.5142857,6.87720628 12.5142857,6.3237218 L12.5142857,5.3206025 C12.5142857,4.76711802 12.5977143,4.3186244 12.0468571,4.3186244 C12.0022857,4.3186244 11.9645714,4.33802489 11.9222857,4.34373092 C11.9177143,4.31405958 11.7634286,2.99710888 11.6434286,2.50182585 C11.5165714,2.00083681 11.2365714,1.2179701 11.0468571,1.31040771 C10.8571429,1.40398653 10.6045714,1.12325007 10.0457143,0.778606125 C9.48342857,0.432820974 8.35657143,0.464774718 8.04571429,0.432820974 C7.29485714,0.358642642 6.27657143,0.1486609 5.71428571,0.0231283367 C5.152,-0.101263021 5.63885714,0.277617078 5.26285714,1.12325007 C4.88571429,1.96888306 4.63657143,1.71781794 4.54285714,2.31238581 C4.45142857,2.90809488 4.16914286,4.3174832 4.16914286,4.3174832 L4.18514286,4.3174832 C4.18285714,4.32661284 4.17942857,4.33574248 4.176,4.34487212 C4.13142857,4.33802489 4.09142857,4.3174832 4.04342857,4.3174832 C3.49371429,4.3174832 3.576,4.76597681 3.576,5.31946129 L3.576,6.32258059 C3.576,6.87606508 3.49371429,7.32455869 4.04342857,7.32455869 C4.08228571,7.32455869 4.11657143,7.3062994 4.15314286,7.30173458 C4.48114286,8.8651856 5.52914286,10.481132 6.88342857,11.0996652 L3.54514286,11.0996652 C2.16342857,11.1008064 0,16 0,16 L16,16 C16,16 13.8948571,11.1008064 12.512,11.1008064" id="Fill-126" fill="#58595B" sketch:type="MSShapeGroup"></path>
            <path d="M9.15122831,11.6371241 C8.97142686,11.2413347 8.58355329,10.965413 8.12330681,10.965413 C7.66645282,10.965413 7.27518677,11.2413347 7.09425449,11.6371241 C6.35017051,11.3227542 5.3640896,10.3999996 4.73082663,10.3999996 C3.5999999,10.3999996 3.5999999,12.100763 3.5999999,12.100763 C3.5999999,12.100763 3.5999999,13.8015264 4.73082663,13.8015264 C5.3640896,13.8015264 6.35017051,12.8810335 7.09651615,12.564402 C7.27518677,12.9590605 7.66645282,13.2361131 8.12330681,13.2361131 C8.58016081,13.2361131 8.97142686,12.9590605 9.15122831,12.564402 C9.89644312,12.8787718 10.8802624,13.8015264 11.515787,13.8015264 C12.6466137,13.8015264 12.6466137,12.100763 12.6466137,12.100763 C12.6466137,12.100763 12.6466137,10.3999996 11.515787,10.3999996 C10.8802624,10.3999996 9.89644312,11.3216234 9.15122831,11.6371241 Z" id="Fill-125" fill="#ED1C24" sketch:type="MSShapeGroup"></path>
            <path d="M8.17223043,10.8999996 C8.81979321,10.8999996 9.34446086,11.4364841 9.34446086,12.0994088 C9.34446086,12.7623334 8.81979321,13.2999996 8.17223043,13.2999996 C7.52466765,13.2999996 7,12.7623334 7,12.0994088 C7,11.4364841 7.52466765,10.8999996 8.17223043,10.8999996" id="Fill-124" fill="#FFFFFF" sketch:type="MSShapeGroup"></path>
        </g>
    </g>
</svg>