<?xml version="1.0" encoding="UTF-8" standalone="no"?>
<svg width="24px" height="24px" viewBox="0 0 24 24" version="1.1" xmlns="http://www.w3.org/2000/svg" xmlns:xlink="http://www.w3.org/1999/xlink" xmlns:sketch="http://www.bohemiancoding.com/sketch/ns">
    <!-- Generator: Sketch 3.0.2 (7799) - http://www.bohemiancoding.com/sketch -->
    <title>Artboard 1</title>
    <description>Created with Sketch.</description>
    <defs></defs>
    <g id="Page-1" stroke="none" stroke-width="1" fill="none" fill-rule="evenodd" sketch:type="MSPage">
        <g id="Artboard-1" sketch:type="MSArtboardGroup" fill="#F9F9F9">
            <path d="M13.6690428,16.6956932 C12.3077886,17.5233483 10.7095583,18 9.00000001,18 C4.02943724,18 0,13.9705628 0,9.00000002 C0,4.02943726 4.02943724,0 9.00000001,0 C12.4630536,0 15.469277,1.95592279 16.9742335,4.82333173 C17.6293592,6.07154953 18,7.49249088 18,9.00000002 C18,10.9037573 17.4089062,12.6694572 16.4002343,14.1235839 L23.1464737,20.8698233 C23.8766546,21.6000042 23.8802038,22.7907377 23.1479708,23.5229708 C22.4106327,24.2603088 21.2278831,24.2545336 20.4948233,23.5214737 L13.6690428,16.6956932 L13.6690428,16.6956932 L13.6690428,16.6956932 Z M15,9 C15,5.6862915 12.3137085,3 9,3 C5.6862915,3 3,5.6862915 3,9 C3,12.3137085 5.6862915,15 9,15 C12.3137085,15 15,12.3137085 15,9 Z M16.2081845,15.4581845 C16.0617379,15.6046311 16.0648632,15.8451932 16.2088373,15.9891674 L21.5108326,21.2911627 C21.6576398,21.4379698 21.8996518,21.4339792 22.0418155,21.2918155 L22.0418155,21.2918155 C22.1882621,21.1453689 22.1851368,20.9048068 22.0411627,20.7608326 L16.7391674,15.4588373 C16.5923602,15.3120302 16.3503482,15.3160208 16.2081845,15.4581845 L16.2081845,15.4581845 Z" id="Path-9" sketch:type="MSShapeGroup"></path>
        </g>
    </g>
</svg>