<?xml version="1.0" encoding="UTF-8" standalone="no"?>
<svg width="24px" height="23px" viewBox="0 0 24 23" version="1.1" xmlns="http://www.w3.org/2000/svg" xmlns:xlink="http://www.w3.org/1999/xlink" xmlns:sketch="http://www.bohemiancoding.com/sketch/ns">
    <!-- Generator: Sketch 3.0.2 (7799) - http://www.bohemiancoding.com/sketch -->
    <title>Fill 21</title>
    <description>Created with Sketch.</description>
    <defs></defs>
    <g id="Page-1" stroke="none" stroke-width="1" fill="none" fill-rule="evenodd" sketch:type="MSPage">
        <g id="Artboard-1" sketch:type="MSArtboardGroup" transform="translate(0.000000, -1.000000)" fill="#F9F9F9">
            <path d="M14.0339171,1 C4.85347267,1 3.09525044,11.6301818 2.394806,13.5496364 C2.394806,13.5496364 7.74769489,20.6712727 15.0650282,19.7700909 C15.018806,19.5547273 14.9956949,19.3268182 14.9956949,19.0884545 C14.9956949,17.5035455 16.0232504,16.2239091 17.2979171,16.2239091 C18.3325838,16.2239091 19.2036949,17.0749091 19.4934727,18.2458182 C20.9565838,17.4115455 22.4676949,16.1988182 23.9983616,14.5177273 C23.9983616,14.5156364 23.2143616,1 14.0339171,1 L14.0339171,1 Z M7.17169489,8.68827273 C6.63836156,8.04845455 9.56813933,4.565 11.2872504,3.47563636 C13.3139171,2.19181818 17.1450282,2.83790909 16.9014727,3.35436364 C16.6579171,3.88127273 13.5610282,3.415 11.3352504,4.74481818 C9.10591711,6.083 7.70325044,9.326 7.17169489,8.68827273 L7.17169489,8.68827273 Z M19.0330282,4.98109091 C18.7876949,5.49963636 15.6890282,5.03754545 13.4632504,6.37363636 C11.2339171,7.70345455 9.83125044,10.9485455 9.29969489,10.3129091 C8.76813933,9.67518182 11.6961393,6.18336364 13.418806,5.094 C15.4436949,3.81436364 19.274806,4.45836364 19.0330282,4.98109091 L19.0330282,4.98109091 Z M1.98947267,14.5992727 C1.98947267,14.5992727 -0.529638444,16.8616364 0.101472667,17.7858182 C0.730806,18.7141818 9.78325044,31.291 23.5325838,17.7858182 C23.5325838,17.7858182 11.1414727,27.3496364 1.98947267,14.5992727 L1.98947267,14.5992727 Z" id="Fill-21" sketch:type="MSShapeGroup"></path>
        </g>
    </g>
</svg>