<?xml version="1.0" encoding="UTF-8" standalone="no"?>
<svg width="32px" height="32px" viewBox="0 0 32 32" version="1.1" xmlns="http://www.w3.org/2000/svg" xmlns:xlink="http://www.w3.org/1999/xlink" xmlns:sketch="http://www.bohemiancoding.com/sketch/ns">
    <!-- Generator: Sketch 3.0.3 (7891) - http://www.bohemiancoding.com/sketch -->
    <title>Artboard 7</title>
    <desc>Created with Sketch.</desc>
    <defs></defs>
    <g id="Page-1" stroke="none" stroke-width="1" fill="none" fill-rule="evenodd" sketch:type="MSPage">
        <g id="Artboard-7" sketch:type="MSArtboardGroup">
            <path d="M29.021,12.326 C28.217,11.537 27.349,10.912 26.568,10.351 C25.467,9.559 24.228,9.18 23.143,9.214 C22.39,8.113 20.996,7 19.79,7 C18.572,7 17.553,7.771 17.271,8.811 C16.926,8.505 16.471,8.319 15.972,8.319 C15.494,8.319 15.056,8.49 14.719,8.773 C14.422,7.752 13.412,7 12.21,7 C11.004,7 9.609,8.113 8.857,9.214 C7.771,9.18 6.533,9.559 5.431,10.351 C4.65,10.912 3.783,11.537 2.978,12.326 C1.176,13.588 0,15.666 0,18.015 C0,21.864 3.156,24.983 7.051,24.983 C10.592,24.983 13.523,22.51 14.025,19.149 C14.534,19.521 15.215,19.859 15.962,19.859 L16,19.859 L16.038,19.859 C16.785,19.859 17.466,19.521 17.974,19.149 C18.477,22.51 21.408,25.039 24.949,25.039 C28.844,25.039 32,21.89 32,18.044 C32,15.694 30.824,13.588 29.021,12.326 L29.021,12.326 Z M7.144,23.125 C4.472,23.125 2.306,20.912 2.306,18.18 C2.306,15.45 4.472,13.236 7.144,13.236 C9.817,13.236 11.984,15.45 11.984,18.18 C11.984,20.912 9.817,23.125 7.144,23.125 L7.144,23.125 Z M16.041,18.026 C14.969,18.026 14.1,17.138 14.1,16.044 C14.1,14.948 14.969,14.06 16.041,14.06 C17.113,14.06 17.981,14.948 17.981,16.044 C17.981,17.138 17.113,18.026 16.041,18.026 L16.041,18.026 Z M24.855,23.125 C22.182,23.125 20.015,20.912 20.015,18.18 C20.015,15.45 22.182,13.236 24.855,13.236 C27.527,13.236 29.694,15.45 29.694,18.18 C29.694,20.912 27.527,23.125 24.855,23.125 L24.855,23.125 Z" id="Fill-10" fill="#F9F9F9" sketch:type="MSShapeGroup"></path>
            <path d="M8.668,21.057 C6.592,21.057 4.907,19.337 4.907,17.214 C4.907,16.388 5.162,15.625 5.595,15 C4.631,15.696 4,16.842 4,18.141 C4,20.264 5.684,21.984 7.762,21.984 C9.032,21.984 10.155,21.34 10.835,20.355 C10.223,20.796 9.476,21.057 8.668,21.057" id="Fill-11" fill="#BCBCBC" sketch:type="MSShapeGroup"></path>
            <path d="M26.669,21.057 C24.592,21.057 22.908,19.337 22.908,17.214 C22.908,16.388 23.162,15.625 23.595,15 C22.631,15.696 22,16.842 22,18.141 C22,20.264 23.684,21.984 25.762,21.984 C27.032,21.984 28.154,21.34 28.836,20.355 C28.222,20.796 27.476,21.057 26.669,21.057" id="Fill-12" fill="#BCBCBC" sketch:type="MSShapeGroup"></path>
        </g>
    </g>
</svg>