<?xml version="1.0" encoding="UTF-8" standalone="no"?>
<svg width="28px" height="26px" viewBox="0 0 28 26" version="1.1" xmlns="http://www.w3.org/2000/svg" xmlns:xlink="http://www.w3.org/1999/xlink" xmlns:sketch="http://www.bohemiancoding.com/sketch/ns">
    <!-- Generator: Sketch 3.0.2 (7799) - http://www.bohemiancoding.com/sketch -->
    <title>Fill 21</title>
    <description>Created with Sketch.</description>
    <defs></defs>
    <g id="Page-1" stroke="none" stroke-width="1" fill="none" fill-rule="evenodd" sketch:type="MSPage">
        <g id="Artboard-1" sketch:type="MSArtboardGroup" transform="translate(0.000000, -1.000000)" fill="#58595B">
            <path d="M16.3729033,1 C5.66238478,1 3.61112552,13.0167273 2.79394033,15.1865455 C2.79394033,15.1865455 9.03897737,23.2370909 17.5758663,22.2183636 C17.5219403,21.9749091 17.4949774,21.7172727 17.4949774,21.4478182 C17.4949774,19.6561818 18.6937922,18.2096364 20.1809033,18.2096364 C21.3880144,18.2096364 22.4043107,19.1716364 22.7423848,20.4952727 C24.4493477,19.5521818 26.2123107,18.1812727 27.9980885,16.2809091 C27.9980885,16.2785455 27.0834218,1 16.3729033,1 L16.3729033,1 Z M8.36697737,9.69109091 C7.74475515,8.96781818 11.1628292,5.03 13.1684589,3.79854545 C15.5329033,2.34727273 20.0025329,3.07763636 19.7183848,3.66145455 C19.4342366,4.25709091 15.8211996,3.73 13.2244589,5.23327273 C10.62357,6.746 8.98712552,10.412 8.36697737,9.69109091 L8.36697737,9.69109091 Z M22.2051996,5.50036364 C21.9189774,6.08654545 18.3038663,5.56418182 15.7071255,7.07454545 C13.1062366,8.57781818 11.4697922,12.2461818 10.849644,11.5276364 C10.2294959,10.8067273 13.6454959,6.85945455 15.6552737,5.628 C18.017644,4.18145455 22.4872737,4.90945455 22.2051996,5.50036364 L22.2051996,5.50036364 Z M2.32105144,16.3730909 C2.32105144,16.3730909 -0.617911518,18.9305455 0.118384778,19.9752727 C0.852607,21.0247273 11.4137922,35.242 27.4546811,19.9752727 C27.4546811,19.9752727 12.9983848,30.7865455 2.32105144,16.3730909 L2.32105144,16.3730909 Z" id="Fill-21" sketch:type="MSShapeGroup"></path>
        </g>
    </g>
</svg>