<?xml version="1.0" encoding="UTF-8" standalone="no"?>
<svg width="28px" height="28px" viewBox="0 0 28 28" version="1.1" xmlns="http://www.w3.org/2000/svg" xmlns:xlink="http://www.w3.org/1999/xlink" xmlns:sketch="http://www.bohemiancoding.com/sketch/ns">
    <!-- Generator: Sketch 3.0.2 (7799) - http://www.bohemiancoding.com/sketch -->
    <title>Artboard 1</title>
    <description>Created with Sketch.</description>
    <defs></defs>
    <g id="Page-1" stroke="none" stroke-width="1" fill="none" fill-rule="evenodd" sketch:type="MSPage">
        <g id="Artboard-1" sketch:type="MSArtboardGroup" fill="#58595B">
            <path d="M18.9469041,5.17039587 C18.9468383,5.17043817 18.4986662,5.45836703 17.9458273,5.51634397 L10.7571413,6.2702309 C10.1993578,6.3287264 9.75606446,5.92385069 9.75606446,5.36706443 L9.75606446,5.21469117 C9.75606446,4.64540413 10.2042618,4.2535435 10.7571413,4.31152469 L17.9458273,5.06541162 C18.5036109,5.12390712 18.9469042,5.27827906 18.9469042,5.41135972 L18.9469042,5.17039587 C18.9524194,5.1739282 19.3985008,5.45871926 19.947981,5.51634397 L27.136667,6.2702309 C27.6944505,6.3287264 28.1377439,5.92385069 28.1377439,5.36706443 L28.1377439,5.21469117 C28.1377439,4.64540413 27.6895465,4.2535435 27.136667,4.31152469 L19.947981,5.06541162 C19.3901975,5.12390712 18.9469042,5.27827906 18.9469042,5.41135972 L18.9469042,5.17039587 C18.9469042,5.17039587 18.9469211,5.17040675 18.9469549,5.17042841 L18.9469041,5.17039587 Z M17.6644614,9.42264185 L17.6644614,6.85714286 L20.0156064,6.85714286 L20.0156064,9.24754277 C23.928184,9.37675667 26.8091721,13.2125144 26.8091716,15.6276154 C26.8091711,18.0843172 24.7890743,21.8317287 18.8515141,21.8317287 C12.913954,21.8317287 11.7325372,15.4068887 10.6613304,15.0548556 C9.5901237,14.7028225 5.85008292,13.453999 4.63819113,13.453999 C3.42629934,13.453999 3.92203535,11.9632705 3.30982758,11.9632705 C2.69761982,11.9632705 1.77962124,10.5831406 3.44433411,10.5831406 C5.10904698,10.5831406 10.4043827,10.5831406 12.993481,10.5831406 C13.8974747,9.97583193 16.0763675,9.61414172 17.6644614,9.42264185 L17.6644614,9.42264185 Z M20.0085096,11.2248481 L20.0085096,14.0128752 C20.0085096,14.8134211 21.2143481,15.7311545 22.1569769,15.7311545 C23.0996057,15.7311545 24.7218624,14.8202453 24.7218624,13.4401154 C24.7218624,12.0599855 21.991662,10.3692381 21.4040845,10.3692381 C20.816507,10.3692381 20.0085096,10.5278413 20.0085096,11.2248481 Z M4.62629347,6.37521515 C2.14733597,6.37521515 0.137743851,8.6407622 0.137743851,11.4354561 C0.137743851,14.23015 2.14733597,16.4956971 4.62629347,16.4956971 C4.86238466,16.4956971 5.05377439,16.2799307 5.05377439,16.0137694 C5.05377439,15.747608 4.86238466,15.5318417 4.62629347,15.5318417 C2.61951835,15.5318417 0.992705683,13.6978274 0.992705683,11.4354561 C0.992705683,9.17308485 2.61951835,7.33907057 4.62629347,7.33907057 C5.51130646,7.33907057 6.34612969,7.69641107 7.00174744,8.33557537 C7.1803272,8.50967348 7.45028415,8.48760184 7.60471316,8.28627697 C7.75914216,8.08495211 7.73956411,7.78061166 7.56098435,7.60651356 C6.7514564,6.8173016 5.71864864,6.37521515 4.62629347,6.37521515 Z M9.42794529,21.1510664 C9.50841393,21.550644 9.62822921,21.9508045 9.79687846,22.3285448 C10.2971592,23.4490725 11.1213661,24.1465348 12.2990331,24.1465348 L25.2270041,24.1465348 C26.5768467,24.1465348 27.9743075,22.2541249 27.9743075,20.5591383 C27.9743075,20.292977 27.7829178,20.0772106 27.5468266,20.0772106 C27.3107354,20.0772106 27.1193457,20.292977 27.1193457,20.5591383 C27.1193457,21.7568739 26.0664516,23.1826794 25.2270041,23.1826794 L12.2990331,23.1826794 C11.478806,23.1826794 10.9268371,22.7155909 10.5605584,21.8952007 C10.4259119,21.5936196 10.3277974,21.2659359 10.2616897,20.9376692 C10.2385335,20.822684 10.2211367,20.7163981 10.2087336,20.6219773 C10.2016271,20.5678782 10.1978847,20.5316672 10.1966866,20.516471 C10.1757843,20.2513549 9.96820152,20.0555386 9.73303743,20.0791031 C9.49787335,20.1026676 9.32417984,20.3366896 9.34508212,20.6018057 C9.35433645,20.7191839 9.37940914,20.9100538 9.42794529,21.1510664 Z" id="Rectangle-86" sketch:type="MSShapeGroup"></path>
        </g>
    </g>
</svg>