<?xml version="1.0" encoding="UTF-8" standalone="no"?>
<svg width="32px" height="32px" viewBox="0 0 32 32" version="1.1" xmlns="http://www.w3.org/2000/svg" xmlns:xlink="http://www.w3.org/1999/xlink" xmlns:sketch="http://www.bohemiancoding.com/sketch/ns">
    <!-- Generator: Sketch 3.0.3 (7891) - http://www.bohemiancoding.com/sketch -->
    <title>Artboard 15</title>
    <desc>Created with Sketch.</desc>
    <defs></defs>
    <g id="Page-1" stroke="none" stroke-width="1" fill="none" fill-rule="evenodd" sketch:type="MSPage">
        <g id="Artboard-15" sketch:type="MSArtboardGroup">
            <path d="M14,22.3136646 C14,19.931677 12.2095284,18 10.0014401,18 C7.79047162,18 5.63720703,19.9425974 5.63720703,22.324585 C5.63720703,22.5581687 5.65954459,22.7848536 5.69268799,23.0083618 L13.9496417,23 C13.9827824,22.7764918 14,22.5472483 14,22.3136646 Z" id="Path-6" fill="#58595B" sketch:type="MSShapeGroup"></path>
            <path d="M10,16.337 C6.686,16.337 4,19.023 4,22.337 C4,23.814 4.535,25.164 5.42,26.209 L1,30.629 L1.707,31.337 L6.127,26.916 C7.172,27.801 8.522,28.337 10,28.337 C13.312,28.337 15.999,25.651 15.999,22.337 C15.999,19.023 13.312,16.337 10,16.337 Z M10,27.337 C7.239,27.337 5,25.099 5,22.337 C5,19.576 7.239,17.337 10,17.337 C12.761,17.337 14.999,19.576 14.999,22.337 C14.999,25.099 12.761,27.337 10,27.337 L10,27.337 Z" id="Fill-101" fill="#BCBCBC" sketch:type="MSShapeGroup"></path>
            <path d="M1.99999999,22.0003013 L1.99999999,3 L31.0092773,3 C31.0352771,3 31.0092773,4 31.0092773,4 L3.03309463,4 L3.03309463,18.0649433 C2.37541612,19.2268432 2,20.5695801 2,22 Z M14.1555344,28.8374067 L16.9838867,32 L21.562,27 L32.0092773,27 L32.0092773,3 L31.0092773,3 L31.0092773,26 L21.049,26.002 L16.9748867,30.461 L15.0031382,28.242854 C14.7342925,28.4585899 14.4512138,28.6573182 14.1555344,28.8374067 Z M29.0517578,8 L5,8 L5,11 L29.0517578,11 L29.0517578,8 Z" id="Fill-13" fill="#58595B" sketch:type="MSShapeGroup"></path>
            <path d="M5,15.7574567 L5,14 L29,14 L29,17 L23.6439969,17 C21.6210061,17 18.9394937,17 16.2425433,17 C14.7748475,15.171075 12.5212439,14 10,14 C8.10810658,14 6.36959794,14.6583667 5,15.7574567 Z" id="Fill-13" fill="#58595B" sketch:type="MSShapeGroup"></path>
            <path d="M17.7474091,20 L28.9895021,20 L28.9895021,23 L17.9378859,23 C17.978881,22.67233 18,22.3385783 18,22 C18,21.3094009 17.9122743,20.6392398 17.7474091,20 Z" id="Fill-13" fill="#58595B" sketch:type="MSShapeGroup"></path>
        </g>
    </g>
</svg>