<?xml version="1.0" encoding="UTF-8" standalone="no"?>
<svg width="30px" height="30px" viewBox="0 0 30 30" version="1.1" xmlns="http://www.w3.org/2000/svg" xmlns:xlink="http://www.w3.org/1999/xlink" xmlns:sketch="http://www.bohemiancoding.com/sketch/ns">
    <!-- Generator: Sketch 3.0.3 (7891) - http://www.bohemiancoding.com/sketch -->
    <title>Artboard 1</title>
    <desc>Created with Sketch.</desc>
    <defs></defs>
    <g id="Page-1" stroke="none" stroke-width="1" fill="none" fill-rule="evenodd" sketch:type="MSPage">
        <g id="Artboard-1" sketch:type="MSArtboardGroup" fill="#F5F5F5">
            <g id="Fill-10-+-Path-6" sketch:type="MSLayerGroup" transform="translate(1.000000, 5.000000)">
                <path d="M3,13.1382277 C3,13.1382277 9.41004833,20.5938764 18.1674683,19.6526172 C18.1121359,19.4249638 18.0844696,19.1863655 18.0844696,18.9368223 C18.0844696,17.2797683 19.314552,15.9379267 20.8404499,15.9379267 C22.0790449,15.9379267 23.1218483,16.8288395 23.46874,18.0546654 C25.220224,17.1812644 27.0291686,15.911659 28.861523,14.1517231 C28.861523,14.1495341 27.923,0 16.9331296,0 C5.94325924,0 3.83849902,11.1287487 3,13.1382277 L3,13.1382277 Z M7.654308,8.04886091 C7.0137288,7.37903458 10.5230813,3.7322023 12.5810218,2.59174635 C15.0071357,1.24771572 19.5933422,1.92410899 19.3017829,2.4647858 C19.0102236,3.01640749 15.3029513,2.52826607 12.6384824,3.92045415 C9.96975707,5.32139812 8.29063086,8.71649828 7.654308,8.04886091 L7.654308,8.04886091 Z M21.8534589,4.16780832 C21.5597714,4.71067411 17.8503709,4.22691064 15.185902,5.62566564 C12.5171767,7.01785371 10.8380505,10.4151428 10.2017276,9.74969445 C9.56540475,9.08205709 13.0705009,5.42646892 15.1326977,4.28601296 C17.5566835,2.94636029 22.14289,3.62056458 21.8534589,4.16780832 L21.8534589,4.16780832 Z" id="Fill-10" sketch:type="MSShapeGroup"></path>
                <path d="M2.36715336,15 C2.36715336,15 -0.630184793,17.1659712 0.120736197,18.0507765 C0.869541917,18.9395854 11.6404988,30.9805438 28,18.0507765 C28,18.0507765 13.2565653,27.2091115 2.36715336,15" id="Path-6" sketch:type="MSShapeGroup"></path>
            </g>
        </g>
    </g>
</svg>