<?xml version="1.0" encoding="UTF-8" standalone="no"?>
<svg width="28px" height="28px" viewBox="0 0 28 28" version="1.1" xmlns="http://www.w3.org/2000/svg" xmlns:xlink="http://www.w3.org/1999/xlink" xmlns:sketch="http://www.bohemiancoding.com/sketch/ns">
    <!-- Generator: Sketch 3.0.2 (7799) - http://www.bohemiancoding.com/sketch -->
    <title>Artboard 1</title>
    <description>Created with Sketch.</description>
    <defs></defs>
    <g id="Page-1" stroke="none" stroke-width="1" fill="none" fill-rule="evenodd" sketch:type="MSPage">
        <g id="Artboard-1" sketch:type="MSArtboardGroup" fill="#F9F9F9">
            <path d="M12.1774008,22.4976501 C12.176144,22.4949063 12.174893,22.4921592 12.1736479,22.4894089 C10.8547695,23.0489331 9.11225124,24.6755499 7.99320284,24.6755499 C5.99490213,24.6755499 5.99490213,21.6701056 5.99490213,21.6701056 C5.99490213,21.6701056 5.99490213,20.3264843 6.59223053,19.4360054 L6.1987288,19.4360054 C3.78278325,19.4380037 0,28.0167087 0,28.0167087 L27.9762099,28.0167087 C27.9762099,28.0167087 24.29534,19.4380037 21.8773962,19.4380037 L21.3853184,19.4380037 L21.3853184,19.4380037 C21.9813078,20.3284929 21.9813078,21.6701056 21.9813078,21.6701056 C21.9813078,21.6701056 21.9813078,24.6755499 19.9830071,24.6755499 C18.8599621,24.6755499 17.1214405,23.0449365 15.8045603,22.4894089 C15.7911341,22.5188791 15.7770406,22.5479782 15.7622993,22.5766849 C15.4371823,23.2428256 14.7649355,23.7003792 13.988105,23.7003792 C13.1809176,23.7003792 12.4866474,23.2063664 12.1774008,22.4976501 Z M12.2502113,20.6931583 C12.221222,20.7443818 12.1943295,20.796973 12.1696513,20.8508023 C11.4594226,20.5507361 10.6244276,19.9370049 9.83031213,19.4360054 L12.0357652,19.4360054 C9.66777884,18.3529265 7.83533709,15.5233326 7.26182478,12.7856607 C7.19787916,12.7936539 7.13793014,12.8256267 7.06998791,12.8256267 C6.10880527,12.8256267 6.25268292,12.0402945 6.25268292,11.0711187 L6.25268292,9.31461234 C6.25268292,8.3454365 6.10880527,7.56010432 7.06998791,7.56010432 C7.15391654,7.56010432 7.22385707,7.59607373 7.3017908,7.60806353 C7.3077857,7.59207713 7.3137806,7.57609072 7.3177772,7.56010432 L7.28980099,7.56010432 C7.28980099,7.56010432 7.78338127,5.09220294 7.94324532,4.04908997 C8.10710598,3.0079753 8.54273554,3.44760145 9.20217477,1.96686063 C9.85961571,0.4861198 9.0083396,-0.177316036 9.99150355,0.0404987419 C10.9746675,0.26031182 12.7551534,0.627999151 14.068037,0.757888697 C14.6115748,0.813841117 16.5818993,0.757888697 17.5650632,1.36337381 C18.5422323,1.96686063 18.9838568,2.4584426 19.3155747,2.29458194 C19.6472926,2.13271959 20.1368763,3.50355387 20.3586876,4.38080789 C20.5685092,5.24807039 20.8382798,7.55410941 20.846273,7.60606523 C20.9202101,7.59607373 20.9861541,7.56210262 21.0640878,7.56210262 C22.0272687,7.56210262 21.8813928,8.3474348 21.8813928,9.31661064 L21.8813928,11.073117 C21.8813928,12.0422928 22.0272687,12.827625 21.0640878,12.827625 C20.9941473,12.827625 20.9361965,12.7956522 20.8682543,12.787659 C20.2987386,15.5253309 18.4662969,18.3549248 16.0963122,19.4380037 L18.1398419,19.4380037 L18.1398419,19.4380037 C17.3472148,19.9382025 16.5145983,20.5501944 15.8045603,20.8508023 C15.7896404,20.8180536 15.7739097,20.7857631 15.7573931,20.75396 C15.4304525,20.0938211 14.7610486,19.6418304 13.988105,19.6418304 C13.2391291,19.6418304 12.5873712,20.0662248 12.2502113,20.6931583 Z" id="Fill-32" sketch:type="MSShapeGroup"></path>
        </g>
    </g>
</svg>