<?xml version="1.0" encoding="UTF-8" standalone="no"?>
<svg width="16px" height="16px" viewBox="0 0 16 16" version="1.1" xmlns="http://www.w3.org/2000/svg" xmlns:xlink="http://www.w3.org/1999/xlink" xmlns:sketch="http://www.bohemiancoding.com/sketch/ns">
    <!-- Generator: Sketch 3.0.2 (7799) - http://www.bohemiancoding.com/sketch -->
    <title>Artboard 1</title>
    <description>Created with Sketch.</description>
    <defs></defs>
    <g id="Page-1" stroke="none" stroke-width="1" fill="none" fill-rule="evenodd" sketch:type="MSPage">
        <g id="Artboard-1" sketch:type="MSArtboardGroup" fill="#58595B">
            <path d="M6.95851473,12.8558 C6.95779657,12.8542321 6.95708174,12.8526624 6.95637025,12.8510908 C6.20272541,13.1708189 5.20700071,14.1003142 4.56754448,14.1003142 C3.42565836,14.1003142 3.42565836,12.3829175 3.42565836,12.3829175 C3.42565836,12.3829175 3.42565836,11.6151339 3.76698888,11.1062888 L3.54213075,11.1062888 C2.16159043,11.1074307 0,16.0095478 0,16.0095478 L15.9864057,16.0095478 C15.9864057,16.0095478 13.8830515,11.1074307 12.5013692,11.1074307 L12.2201819,11.1074307 L12.2201819,11.1074307 C12.5607473,11.6162817 12.5607473,12.3829175 12.5607473,12.3829175 C12.5607473,12.3829175 12.5607473,14.1003142 11.4188612,14.1003142 C10.7771212,14.1003142 9.78368028,13.1685352 9.03117733,12.8510908 C9.02350519,12.8679309 9.01545177,12.8845589 9.00702816,12.9009628 C8.82124702,13.2816146 8.43710598,13.5430738 7.99320284,13.5430738 C7.53195292,13.5430738 7.1352271,13.2607808 6.95851473,12.8558 Z M7.00012072,11.8246619 C6.98355545,11.8539325 6.9681883,11.8839846 6.95408647,11.9147442 C6.54824151,11.7432778 6.07110146,11.3925742 5.61732122,11.1062888 L6.8775801,11.1062888 C5.52444505,10.4873865 4.47733548,8.8704758 4.14961416,7.30609181 C4.11307381,7.31065936 4.07881722,7.32892954 4.03999309,7.32892954 C3.49074587,7.32892954 3.57296167,6.88016829 3.57296167,6.32635352 L3.57296167,5.32263562 C3.57296167,4.76882085 3.49074587,4.32005961 4.03999309,4.32005961 C4.08795231,4.32005961 4.12791833,4.34061356 4.17245188,4.34746488 C4.17587754,4.33832979 4.1793032,4.3291947 4.18158697,4.32005961 L4.16560057,4.32005961 C4.16560057,4.32005961 4.44764644,2.90983025 4.53899733,2.3137657 C4.63263199,1.71884303 4.88156316,1.97005797 5.25838558,1.12392036 C5.63406612,0.277782743 5.14762263,-0.101323449 5.7094306,0.0231421382 C6.27123857,0.148749611 7.28865911,0.358856658 8.03887829,0.433079255 C8.34947131,0.465052067 9.47537103,0.433079255 10.037179,0.77907075 C10.5955613,1.12392036 10.8479181,1.40482434 11.0374712,1.31118968 C11.2270243,1.21869691 11.5067864,2.00203078 11.6335358,2.50331879 C11.7534338,2.99889737 11.9075885,4.31663395 11.912156,4.34632299 C11.9544058,4.34061356 11.992088,4.3212015 12.0366216,4.3212015 C12.5870107,4.3212015 12.503653,4.76996274 12.503653,5.32377751 L12.503653,6.32749541 C12.503653,6.88131018 12.5870107,7.33007142 12.0366216,7.33007142 C11.9966556,7.33007142 11.9635409,7.31180124 11.9247168,7.3072337 C11.5992792,8.87161769 10.5521696,10.4885284 9.1978927,11.1074307 L10.365624,11.1074307 L10.365624,11.1074307 C9.91269415,11.3932586 9.43691334,11.7429683 9.03117733,11.9147442 C9.02265165,11.8960306 9.01366268,11.8775789 9.00422461,11.8594057 C8.81740141,11.4821835 8.43488491,11.2239031 7.99320284,11.2239031 C7.5652166,11.2239031 7.19278356,11.4664142 7.00012072,11.8246619 Z" id="Fill-32" sketch:type="MSShapeGroup"></path>
        </g>
    </g>
</svg>