<?xml version="1.0" encoding="UTF-8" standalone="no"?>
<svg width="32px" height="32px" viewBox="0 0 32 32" version="1.1" xmlns="http://www.w3.org/2000/svg" xmlns:xlink="http://www.w3.org/1999/xlink" xmlns:sketch="http://www.bohemiancoding.com/sketch/ns">
    <!-- Generator: Sketch 3.0.3 (7891) - http://www.bohemiancoding.com/sketch -->
    <title>Artboard 3</title>
    <desc>Created with Sketch.</desc>
    <defs></defs>
    <g id="Page-1" stroke="none" stroke-width="1" fill="none" fill-rule="evenodd" sketch:type="MSPage">
        <g id="Artboard-3" sketch:type="MSArtboardGroup">
            <path d="M19.5259878,1.30322826 C18.335047,0.881945222 16.6093395,0.920880281 16.0777566,0.866158511 C14.5773182,0.717713315 12.5424771,0.297499223 11.4188612,0.0462842765 C10.2952453,-0.202646898 11.2681322,0.555565486 10.5167712,2.24784072 C9.76312633,3.94011595 9.26526398,3.43768605 9.07799466,4.62753139 C8.89529288,5.8196605 8.33120113,8.64011922 8.33120113,8.64011922 L8.36317395,8.64011922 C8.3586064,8.6583894 8.35175508,8.67665957 8.34490377,8.69492975 C8.25583665,8.68122712 8.17590462,8.64011922 8.07998619,8.64011922 C6.98149174,8.64011922 7.14592334,9.53764171 7.14592334,10.6452712 L7.14592334,12.652707 C7.14592334,13.7603366 6.98149174,14.6578591 8.07998619,14.6578591 C8.15763444,14.6578591 8.22614761,14.6213187 8.29922832,14.6121836 C8.95467096,17.7409516 11.0488901,20.9747731 13.7551602,22.2125776 L11.2346424,22.2125776 C12.1422029,22.7851484 13.096483,23.4865556 13.9081729,23.8294884 C13.9363766,23.7679692 13.9671109,23.7078649 14.0002414,23.6493237 L14.0002414,23.6493237 C14.3855671,22.9328283 15.1304332,22.4478062 15.9864057,22.4478062 C16.8697698,22.4478062 17.6348028,22.964367 18.0084492,23.7188114 C18.0273254,23.7551578 18.0453033,23.7920612 18.0623547,23.8294884 C18.8738267,23.4859365 19.8253883,22.7865172 20.7312479,22.2148614 L20.7312479,22.2148614 L18.3957854,22.2148614 C21.1043393,20.9770569 23.1985584,17.7432354 23.8494335,14.6144674 C23.9270818,14.6236025 23.9933112,14.6601428 24.0732432,14.6601428 C24.6900732,14.6601428 24.9089087,14.3783197 24.9821032,13.9356263 C21.0511756,13.434805 18,10.0728305 18,6 C18,4.24694198 18.5661709,2.62327804 19.5259878,1.30322826 Z M13.9170295,25.7116001 C13.9155931,25.7084643 13.9141635,25.7053248 13.9127405,25.7021816 C12.4054508,26.3416379 10.4140014,28.2006285 9.13508896,28.2006285 C6.85131672,28.2006285 6.85131672,24.765835 6.85131672,24.765835 C6.85131672,24.765835 6.85131672,23.2302678 7.53397775,22.2125776 L7.08426149,22.2125776 C4.32318085,22.2148614 0,32.0190956 0,32.0190956 L31.9728114,32.0190956 C31.9728114,32.0190956 27.7661029,22.2148614 25.0027385,22.2148614 L24.4403638,22.2148614 L24.4403638,22.2148614 C25.1214946,23.2325633 25.1214946,24.765835 25.1214946,24.765835 C25.1214946,24.765835 25.1214946,28.2006285 22.8377224,28.2006285 C21.5542424,28.2006285 19.5673606,26.3370703 18.0623547,25.7021816 C18.0470104,25.7358618 18.0309035,25.7691179 18.0140563,25.8019256 C17.642494,26.5632292 16.874212,27.0861476 15.9864057,27.0861476 C15.0639058,27.0861476 14.2704542,26.5215616 13.9170295,25.7116001 L13.9170295,25.7116001 Z" id="Fill-91" fill="#005C83" sketch:type="MSShapeGroup"></path>
            <path d="M26,0 C22.687,0 20,2.686 20,6 C20,9.314 22.687,12 26,12 C29.314,12 32,9.314 32,6 C32,2.686 29.314,0 26,0" id="Fill-112" fill="#BCBCBC" sketch:type="MSShapeGroup"></path>
            <path d="M27,2 L25,2 L25,5 L22,5 L22,7 L25,7 L25,10 L27,10 L27,7 L30,7 L30,5 L27,5 L27,2 Z" id="Fill-92" fill="#FFFFFF" sketch:type="MSShapeGroup"></path>
        </g>
    </g>
</svg>