<?xml version="1.0" encoding="utf-8"?>
<!-- Generator: Adobe Illustrator 16.0.0, SVG Export Plug-In . SVG Version: 6.00 Build 0)  -->
<!DOCTYPE svg PUBLIC "-//W3C//DTD SVG 1.1//EN" "http://www.w3.org/Graphics/SVG/1.1/DTD/svg11.dtd">
<svg version="1.1" id="Layer_1" xmlns="http://www.w3.org/2000/svg" xmlns:xlink="http://www.w3.org/1999/xlink" x="0px" y="0px"
	 width="16px" height="16px" viewBox="0 0 16 16" enable-background="new 0 0 16 16" xml:space="preserve">
<g>
	<path fill="#EE313B" d="M9.348,2.501c-5.164,0-6.152,5.084-6.547,6.002c0,0,3.012,3.406,7.127,2.976
		c-0.025-0.104-0.039-0.213-0.039-0.326c0-0.758,0.578-1.371,1.295-1.371c0.582,0,1.072,0.408,1.235,0.967
		c0.823-0.4,1.673-0.98,2.534-1.783C14.953,8.965,14.512,2.501,9.348,2.501z"/>
	<g>
		<g>
			<path fill="#58595B" d="M2.073,9.005c0,0-1.417,1.082-1.062,1.524c0.354,0.443,5.446,6.459,13.181,0
				C14.191,10.529,7.221,15.104,2.073,9.005z"/>
			<path fill="#FFFFFF" d="M4.988,6.178c-0.3-0.306,1.348-1.972,2.315-2.493c1.14-0.614,3.294-0.305,3.158-0.058
				C10.324,3.879,8.582,3.656,7.33,4.292C6.076,4.932,5.287,6.483,4.988,6.178z M11.66,4.405c-0.139,0.248-1.881,0.027-3.133,0.666
				C7.273,5.707,6.485,7.259,6.186,6.955C5.886,6.65,7.533,4.98,8.502,4.459C9.641,3.847,11.796,4.155,11.66,4.405z"/>
		</g>
	</g>
	<rect fill="none" width="16" height="16"/>
</g>
</svg>
