<?xml version="1.0" encoding="utf-8"?>
<!-- Generator: Adobe Illustrator 16.0.0, SVG Export Plug-In . SVG Version: 6.00 Build 0)  -->
<!DOCTYPE svg PUBLIC "-//W3C//DTD SVG 1.1//EN" "http://www.w3.org/Graphics/SVG/1.1/DTD/svg11.dtd">
<svg version="1.1" id="Layer_1" xmlns="http://www.w3.org/2000/svg" xmlns:xlink="http://www.w3.org/1999/xlink" x="0px" y="0px"
	 width="16px" height="16px" viewBox="0 0 16 16" enable-background="new 0 0 16 16" xml:space="preserve">
<g>
	<g>
		<g>
			<g>
				<path fill="#58595B" d="M11.948,10.707H9.055c1.186-0.542,2.103-1.958,2.389-3.328c0.033,0.004,0.062,0.02,0.097,0.02
					c0.483,0,0.409-0.393,0.409-0.878V5.642c0-0.485,0.074-0.878-0.409-0.878c-0.039,0-0.072,0.017-0.11,0.022
					c-0.003-0.026-0.138-1.18-0.244-1.614c-0.11-0.439-0.355-1.125-0.521-1.044c-0.166,0.082-0.386-0.164-0.876-0.466
					c-0.492-0.303-1.478-0.275-1.75-0.303C7.383,1.294,6.492,1.11,6,1C5.508,0.891,5.934,1.223,5.605,1.964
					c-0.329,0.741-0.548,0.521-0.63,1.042C4.894,3.528,4.648,4.763,4.648,4.763h0.014C4.66,4.771,4.657,4.779,4.655,4.787
					C4.615,4.781,4.58,4.763,4.538,4.763c-0.482,0-0.409,0.393-0.409,0.878V6.52c0,0.485-0.073,0.878,0.409,0.878
					c0.034,0,0.063-0.016,0.096-0.02c0.287,1.37,1.204,2.786,2.389,3.328H4.101C2.893,10.707,1,15,1,15h14
					C15,15,13.158,10.707,11.948,10.707z"/>
			</g>
		</g>
		<path fill="#ED1C24" d="M11,10.32c-0.562,0-1.431,0.815-2.091,1.094C8.75,11.065,8.407,10.82,8,10.82
			c-0.405,0-0.75,0.245-0.91,0.594C6.431,11.136,5.561,10.32,5,10.32c-1,0-1,1.504-1,1.504s0,1.504,1,1.504
			c0.561,0,1.431-0.815,2.092-1.094C7.25,12.583,7.595,12.828,8,12.828s0.75-0.245,0.909-0.594c0.66,0.278,1.529,1.094,2.091,1.094
			c1,0,1-1.504,1-1.504S12,10.32,11,10.32z"/>
	</g>
	<rect fill="none" width="16" height="16"/>
</g>
<ellipse fill="#FFFFFF" cx="8" cy="11.824" rx="0.992" ry="1.016"/>
</svg>
