<?xml version="1.0" encoding="utf-8"?>
<!-- Generator: Adobe Illustrator 16.0.0, SVG Export Plug-In . SVG Version: 6.00 Build 0)  -->
<!DOCTYPE svg PUBLIC "-//W3C//DTD SVG 1.1//EN" "http://www.w3.org/Graphics/SVG/1.1/DTD/svg11.dtd">
<svg version="1.1" id="Layer_1" xmlns="http://www.w3.org/2000/svg" xmlns:xlink="http://www.w3.org/1999/xlink" x="0px" y="0px"
	 width="16px" height="16px" viewBox="0 0 16 16" enable-background="new 0 0 16 16" xml:space="preserve">
<g>
	<polygon fill="#939598" points="4.298,4.318 3.795,4.129 1.877,9.605 2.378,9.795 	"/>
	<path fill="#58595B" d="M2.818,9.838c-0.205,0.213-0.535,0.213-0.74,0L2.062,9.822c-0.204-0.213-0.204-0.557,0-0.768l3.039-3.158
		c0.203-0.212,0.535-0.212,0.739,0l0.017,0.017c0.203,0.212,0.203,0.556,0,0.769L2.818,9.838z"/>
	<path fill="#939598" d="M13.084,8.695c0.223,0.397,0.09,0.908-0.293,1.137l0,0c-0.383,0.23-0.874,0.095-1.096-0.303L9.893,6.284
		C9.672,5.885,9.785,4.425,9.785,4.425s1.273,0.627,1.496,1.025C11.73,6.262,13.084,8.695,13.084,8.695z"/>
	<polygon fill="#58595B" points="15,11 13,11 13,3.833 14,1.5 15,3.833 	"/>
	<path fill="#EE313B" d="M15,11c0,1.104-0.896,2-2,2H3c-1.104,0-2-0.896-2-2l0,0c0-1.104,0.896-2,2-2h10C14.104,9,15,9.896,15,11
		L15,11z"/>
	<rect x="12.607" y="10.521" fill="#FFFFFF" width="1.336" height="1.326"/>
	<rect fill="none" width="16" height="16"/>
</g>
</svg>
