<?xml version="1.0" encoding="utf-8"?>
<!-- Generator: Adobe Illustrator 16.0.0, SVG Export Plug-In . SVG Version: 6.00 Build 0)  -->
<!DOCTYPE svg PUBLIC "-//W3C//DTD SVG 1.1//EN" "http://www.w3.org/Graphics/SVG/1.1/DTD/svg11.dtd">
<svg version="1.1" id="Layer_1" xmlns="http://www.w3.org/2000/svg" xmlns:xlink="http://www.w3.org/1999/xlink" x="0px" y="0px"
	 width="16px" height="16px" viewBox="0.5 0.5 16 16" enable-background="new 0.5 0.5 16 16" xml:space="preserve">
<g>
	<path fill="#EE313B" d="M10.975,6.41c-0.054,0.069-0.106,0.119-0.166,0.147C10.752,6.585,10.68,6.6,10.59,6.6
		c-0.093,0-0.193-0.022-0.302-0.066c-0.106-0.043-0.229-0.092-0.371-0.146C9.775,6.333,9.615,6.283,9.436,6.241
		C9.252,6.197,9.041,6.175,8.798,6.175c-0.382,0-0.681,0.067-0.901,0.203c-0.222,0.134-0.328,0.31-0.328,0.527
		c0,0.144,0.056,0.265,0.168,0.362c0.109,0.099,0.261,0.185,0.445,0.259C8.367,7.6,8.578,7.666,8.812,7.725
		c0.233,0.059,0.476,0.123,0.722,0.192c0.243,0.07,0.485,0.149,0.72,0.239c0.234,0.089,0.445,0.202,0.631,0.339
		c0.186,0.137,0.333,0.302,0.446,0.493c0.112,0.189,0.17,0.422,0.17,0.691c0,0.32-0.071,0.617-0.212,0.891
		c-0.141,0.271-0.35,0.508-0.619,0.705c-0.271,0.197-0.607,0.354-1.007,0.464s-0.856,0.165-1.375,0.165
		c-0.277,0-0.547-0.021-0.812-0.062c-0.266-0.041-0.517-0.101-0.76-0.175c-0.242-0.072-0.467-0.159-0.673-0.26
		c-0.206-0.1-0.39-0.208-0.544-0.326l0.445-0.611c0.057-0.074,0.125-0.133,0.203-0.171c0.078-0.041,0.178-0.06,0.299-0.06
		c0.119,0,0.23,0.027,0.34,0.085c0.107,0.057,0.23,0.116,0.372,0.182c0.141,0.066,0.306,0.129,0.497,0.185
		c0.189,0.057,0.432,0.084,0.725,0.084c0.229,0,0.426-0.022,0.594-0.067c0.162-0.046,0.299-0.106,0.405-0.181
		c0.106-0.073,0.187-0.159,0.235-0.258c0.049-0.1,0.074-0.199,0.074-0.305c0-0.154-0.058-0.283-0.17-0.385S9.256,9.393,9.074,9.318
		C8.889,9.246,8.678,9.18,8.439,9.12C8.202,9.061,7.961,8.998,7.71,8.928c-0.248-0.07-0.487-0.15-0.728-0.244
		C6.747,8.591,6.535,8.472,6.35,8.327C6.164,8.184,6.016,8.01,5.902,7.8C5.789,7.591,5.734,7.338,5.734,7.043
		c0-0.274,0.064-0.535,0.195-0.784C6.061,6.011,6.251,5.795,6.505,5.61c0.25-0.185,0.568-0.333,0.946-0.443
		C7.831,5.056,8.27,5,8.766,5c0.553,0,1.055,0.076,1.512,0.228c0.453,0.153,0.832,0.353,1.137,0.601L10.975,6.41z"/>
</g>
<g>
	<rect x="0.5" y="0.5" fill="none" width="16" height="16"/>
	<rect x="0.5" y="0.5" fill="none" width="16" height="16"/>
</g>
<g>
	<path fill="#414042" d="M1.5,13.275V4h2.209v0.582c0,0.102-0.037,0.189-0.111,0.261C3.523,4.915,3.43,4.951,3.314,4.951H2.771
		v7.371h0.543c0.115,0,0.209,0.037,0.283,0.109c0.073,0.071,0.11,0.157,0.11,0.256v0.588H1.5z"/>
</g>
<g>
	<path fill="#414042" d="M15.5,4v9.275h-2.209v-0.582c0-0.103,0.036-0.189,0.109-0.262c0.074-0.074,0.17-0.107,0.285-0.107h0.541
		V4.953h-0.541c-0.115,0-0.211-0.037-0.285-0.109c-0.073-0.072-0.109-0.158-0.109-0.256V4H15.5z"/>
</g>
</svg>
