<?xml version="1.0" encoding="UTF-8" standalone="no"?>
<svg width="30px" height="30px" viewBox="0 0 30 30" version="1.1" xmlns="http://www.w3.org/2000/svg" xmlns:xlink="http://www.w3.org/1999/xlink" xmlns:sketch="http://www.bohemiancoding.com/sketch/ns">
    <!-- Generator: Sketch 3.0.3 (7891) - http://www.bohemiancoding.com/sketch -->
    <title>Artboard 1</title>
    <desc>Created with Sketch.</desc>
    <defs></defs>
    <g id="Page-1" stroke="none" stroke-width="1" fill="none" fill-rule="evenodd" sketch:type="MSPage">
        <g id="Artboard-1" sketch:type="MSArtboardGroup">
            <path d="M22.3853184,20.4380037 L22.8773962,20.4380037 C25.29534,20.4380037 28.9762099,29.0167087 28.9762099,29.0167087 L1,29.0167087 C1,29.0167087 4.78278325,20.4380037 7.1987288,20.4360054 L7.59223053,20.4360054 C6.99490213,21.3264843 6.99490213,22.6701056 6.99490213,22.6701056 C6.99490213,22.6701056 6.99490213,25.6755499 8.99320284,25.6755499 C10.1122512,25.6755499 11.8547695,24.0489331 13.1736479,23.4894089 C13.4893794,24.1868159 14.1807915,24.6763995 14.988105,24.6763995 C15.7954185,24.6763995 16.4868305,24.1868159 16.8045603,23.4894089 C18.1214405,24.0449365 19.8599621,25.6755499 20.9830071,25.6755499 C22.9813078,25.6755499 22.9813078,22.6701056 22.9813078,22.6701056 C22.9813078,22.6701056 22.9813078,21.3284929 22.3853184,20.4380037 L22.3853184,20.4380037 Z M19.1398419,20.4380037 L17.0963122,20.4380037 C19.4662969,19.3549248 21.2987386,16.5253309 21.8682543,13.787659 C21.9361965,13.7956522 21.9941473,13.827625 22.0640878,13.827625 C23.0272687,13.827625 22.8813928,13.0422928 22.8813928,12.073117 L22.8813928,10.3166106 C22.8813928,9.3474348 23.0272687,8.56210262 22.0640878,8.56210262 C21.9861541,8.56210262 21.9202101,8.59607373 21.846273,8.60606523 C21.8382798,8.55410941 21.5685092,6.24807039 21.3586876,5.38080789 C21.1368763,4.50355387 20.6472926,3.13271959 20.3155747,3.29458194 C19.9838568,3.4584426 19.5422323,2.96686063 18.5650632,2.36337381 C17.5818993,1.7578887 15.6115748,1.81384112 15.068037,1.7578887 C13.7551534,1.62799915 11.9746675,1.26031182 10.9915036,1.04049874 C10.0083396,0.822683964 10.8596157,1.4861198 10.2021748,2.96686063 C9.54273554,4.44760145 9.10710598,4.0079753 8.94324532,5.04908997 C8.78338127,6.09220294 8.28980099,8.56010432 8.28980099,8.56010432 L8.3177772,8.56010432 C8.3137806,8.57609072 8.3077857,8.59207713 8.3017908,8.60806353 C8.22385707,8.59607373 8.15391654,8.56010432 8.06998791,8.56010432 C7.10880527,8.56010432 7.25268292,9.3454365 7.25268292,10.3146123 L7.25268292,12.0711187 C7.25268292,13.0402945 7.10880527,13.8256267 8.06998791,13.8256267 C8.13793014,13.8256267 8.19787916,13.7936539 8.26182478,13.7856607 C8.83533709,16.5233326 10.6677788,19.3529265 13.0357652,20.4360054 L10.8303121,20.4360054 C11.6244276,20.9370049 12.4594226,21.5507361 13.1696513,21.8508023 C13.4893794,21.1533954 14.1807915,20.6638117 14.988105,20.6638117 C15.8014134,20.6638117 16.4868305,21.1533954 16.8045603,21.8508023 C17.5145983,21.5501944 18.3472148,20.9382025 19.1398419,20.4380037 L19.1398419,20.4380037 Z" id="Fill-36" fill="#F9F9F9" sketch:type="MSShapeGroup"></path>
            <path d="M16.818,22.1821809 C16.5,21.4860372 15.814,20.9973404 15,20.9973404 C14.192,20.9973404 13.5,21.4860372 13.18,22.1821809 C11.864,21.6276596 10.12,20 9,20 C7,20 7,23 7,23 C7,23 7,26 9,26 C10.12,26 11.864,24.3763298 13.184,23.8178191 C13.5,24.5139628 14.192,25.0026596 15,25.0026596 C15.808,25.0026596 16.5,24.5139628 16.818,23.8178191 C18.136,24.3723404 19.876,26 21,26 C23,26 23,23 23,23 C23,23 23,20 21,20 C19.876,20 18.136,21.6256649 16.818,22.1821809 L16.818,22.1821809 Z" id="Fill-8" fill="#EE313B" sketch:type="MSShapeGroup"></path>
            <path d="M15,21 C16.1048387,21 17,21.8941408 17,22.9990153 C17,24.1038897 16.1048387,25 15,25 C13.8951613,25 13,24.1038897 13,22.9990153 C13,21.8941408 13.8951613,21 15,21" id="Fill-7" fill="#EE313B" sketch:type="MSShapeGroup"></path>
        </g>
    </g>
</svg>