<?xml version="1.0" encoding="UTF-8" standalone="no"?>
<svg width="32px" height="30px" viewBox="0 0 32 30" version="1.1" xmlns="http://www.w3.org/2000/svg" xmlns:xlink="http://www.w3.org/1999/xlink" xmlns:sketch="http://www.bohemiancoding.com/sketch/ns">
    <!-- Generator: Sketch 3.0.3 (7891) - http://www.bohemiancoding.com/sketch -->
    <title>Artboard 1</title>
    <desc>Created with Sketch.</desc>
    <defs></defs>
    <g id="Page-1" stroke="none" stroke-width="1" fill="none" fill-rule="evenodd" sketch:type="MSPage">
        <g id="Artboard-1" sketch:type="MSArtboardGroup">
            <path d="M11.0966495,23.1275799 C11.1886136,23.5471364 11.3255454,23.9673048 11.5182874,24.3639321 C12.0900367,25.5404862 13.0319876,26.2728217 14.3778927,26.2728217 L29.1527167,26.2728217 C30.695394,26.2728217 32.292492,24.2857912 32.292492,22.5060554 C32.292492,22.226586 32.0737609,22.0000313 31.8039424,22.0000313 C31.5341239,22.0000313 31.3153928,22.226586 31.3153928,22.5060554 C31.3153928,23.7636777 30.1120852,25.2607735 29.1527167,25.2607735 L14.3778927,25.2607735 C13.4404903,25.2607735 12.8096686,24.7703306 12.3910644,23.9089208 C12.2371827,23.5922608 12.1250519,23.2481928 12.0495002,22.9035128 C12.0230359,22.7827783 12.0031539,22.6711782 11.9889789,22.5720362 C11.9808573,22.5152323 11.9765802,22.4772107 11.9752109,22.4612547 C11.9513226,22.1828827 11.7140851,21.9772756 11.4453262,22.0020184 C11.1765672,22.0267612 10.9780604,22.2724842 11.0019487,22.5508561 C11.0125251,22.6741032 11.0411796,22.8745166 11.0966495,23.1275799 L11.0966495,23.1275799 L11.0966495,23.1275799 Z" id="Rectangle-81" fill="#F5F5F5" sketch:type="MSShapeGroup"></path>
            <path d="M11.9955775,5.00393391 C11.4457352,4.9557132 11,5.3558667 11,5.92564723 L11,6.07815257 C11,6.6354215 11.444837,7.04816538 11.9955775,6.99986589 L21.0044225,6.2097976 C21.5542648,6.16157688 22,5.88131353 22,5.88131353 L22,6.12248627 C22,5.98929025 21.555163,5.8423017 21.0044225,5.79400221 L11.9955775,5.00393391 L11.9955775,5.00393391 Z" id="Rectangle-80" fill="#F5F5F5" sketch:type="MSShapeGroup"></path>
            <path d="M31.0046024,5.00475328 C31.5543453,4.95172008 32,5.34797229 32,5.91775282 L32,6.07025816 C32,6.62752709 31.5574094,7.0365865 31.0046024,6.98325771 L22.9953976,6.21061696 C22.4456547,6.15758377 22,5.87341913 22,5.87341913 L22,6.11459186 C22,5.98139584 22.4425906,5.83072281 22.9953976,5.77739402 L31.0046024,5.00475328 L31.0046024,5.00475328 Z" id="Rectangle-84" fill="#F5F5F5" sketch:type="MSShapeGroup"></path>
            <path d="M5.33567037,7 C2.38886099,7 0,9.46243388 0,12.5 C0,15.5375661 2.38886099,18 5.33567037,18 C5.61631888,18 5.84382945,17.7654825 5.84382945,17.4761905 C5.84382945,17.1868985 5.61631888,16.952381 5.33567037,16.952381 C2.95015802,16.952381 1.01631817,14.9589821 1.01631817,12.5 C1.01631817,10.0410179 2.95015802,8.04761905 5.33567037,8.04761905 C6.38771122,8.04761905 7.38009004,8.43601414 8.15944206,9.13072487 C8.37172505,9.31995293 8.69263078,9.29596315 8.87620507,9.0771422 C9.05977935,8.85832125 9.03650634,8.52753217 8.82422335,8.33830411 C7.86191378,7.48050588 6.63418495,7 5.33567037,7 L5.33567037,7 Z" id="Oval-6" fill="#F5F5F5" sketch:type="MSShapeGroup"></path>
            <path d="M20.4670555,10.7411766 L20.4670555,8 L23.1751217,8 L23.1751217,10.5540872 C27.6816573,10.6921493 31.0000006,14.7905681 31,17.3710478 C30.9999994,19.9959771 28.6732371,24 21.8343116,24 C14.9953861,24 13.6346215,17.1352065 12.4007977,16.7590672 C11.1669739,16.3829279 6.85916737,15.0485888 5.46330148,15.0485888 C4.06743559,15.0485888 4.63842797,13.4557797 3.93328256,13.4557797 C3.22813715,13.4557797 2.17077963,11.9811427 4.08820817,11.9811427 L15.0869858,11.9811427 C16.1282124,11.3322474 18.6378772,10.9457898 20.4670555,10.7411766 L20.4670555,10.7411766 Z M23.0102384,12.4855584 L23.0102384,15.0854004 C23.0102384,15.8319114 24.2894112,16.6877 25.2893669,16.6877 C26.2893226,16.6877 28.0102384,15.8382749 28.0102384,14.5513005 C28.0102384,13.264326 25.1139982,11.6877 24.4906866,11.6877 C23.867375,11.6877 23.0102384,11.8355979 23.0102384,12.4855584 L23.0102384,12.4855584 Z" id="Path-5" fill="#EE313B" sketch:type="MSShapeGroup"></path>
        </g>
    </g>
</svg>