<?xml version="1.0" encoding="UTF-8" standalone="no"?>
<svg width="16px" height="16px" viewBox="0 0 16 16" version="1.1" xmlns="http://www.w3.org/2000/svg" xmlns:xlink="http://www.w3.org/1999/xlink" xmlns:sketch="http://www.bohemiancoding.com/sketch/ns">
    <!-- Generator: Sketch 3.0.2 (7799) - http://www.bohemiancoding.com/sketch -->
    <title>Artboard 1</title>
    <description>Created with Sketch.</description>
    <defs></defs>
    <g id="Page-1" stroke="none" stroke-width="1" fill="none" fill-rule="evenodd" sketch:type="MSPage">
        <g id="Artboard-1" sketch:type="MSArtboardGroup" fill="#F9F9F9">
            <path d="M10.0939779,5.25358511 L10.0939779,3.71428571 L11.4374894,3.71428571 L11.4374894,5.14852566 C13.673248,5.226054 15.3195269,7.52750863 15.3195266,8.97656922 C15.3195263,10.4505903 14.1651853,12.6990372 10.7722938,12.6990372 C7.37940228,12.6990372 6.70430697,8.84413323 6.09218883,8.63291335 C5.48007068,8.42169347 3.34290453,7.67239942 2.65039493,7.67239942 C1.95788534,7.67239942 2.24116305,6.7779623 1.89133005,6.7779623 C1.54149704,6.7779623 1.01692642,5.94988436 1.96819092,5.94988436 C2.91945542,5.94988436 5.94536154,5.94988436 7.42484627,5.94988436 C7.9414141,5.58549916 9.18649569,5.36848503 10.0939779,5.25358511 L10.0939779,5.25358511 Z M11.4334341,6.33490883 L11.4334341,8.0077251 C11.4334341,8.48805266 12.1224846,9.03869272 12.6611297,9.03869272 C13.1997747,9.03869272 14.1267785,8.49214716 14.1267785,7.66406922 C14.1267785,6.83599129 12.566664,5.82154287 12.2309054,5.82154287 C11.8951468,5.82154287 11.4334341,5.91670477 11.4334341,6.33490883 Z M6.17735465,2.19026415 C5.84462481,2.15362565 5.57489398,2.39987634 5.57489398,2.71361212 L5.57489398,2.83544123 C5.57489398,3.16111684 5.84255723,3.39565538 6.17735465,3.3587892 L10.2243417,2.91315572 C10.5570715,2.87651721 10.8268024,2.70223752 10.8268024,2.70223752 L10.8268024,2.84681583 C10.8268024,2.76696744 10.5591391,2.67276381 10.2243417,2.63589764 L6.17735465,2.19026415 Z M15.4762501,2.19026415 C15.8089799,2.15362565 16.0787108,2.39987634 16.0787108,2.71361212 L16.0787108,2.83544123 C16.0787108,3.16111684 15.8110475,3.39565538 15.4762501,3.3587892 L11.429263,2.91315572 C11.0965332,2.87651721 10.8268024,2.70223752 10.8268024,2.70223752 L10.8268024,2.84681583 C10.8268024,2.76696744 11.0944656,2.67276381 11.429263,2.63589764 L15.4762501,2.19026415 Z M2.64359627,3.42512909 C1.22704912,3.42512909 0.0787107718,4.78445732 0.0787107718,6.46127367 C0.0787107718,8.13809001 1.22704912,9.49741824 2.64359627,9.49741824 C2.77850552,9.49741824 2.88787108,9.36795841 2.88787108,9.20826162 C2.88787108,9.04856482 2.77850552,8.91910499 2.64359627,8.91910499 C1.49686763,8.91910499 0.56726039,7.81869642 0.56726039,6.46127367 C0.56726039,5.10385091 1.49686763,4.00344234 2.64359627,4.00344234 C3.14931798,4.00344234 3.62635982,4.21784664 4.00099853,4.60134522 C4.10304411,4.70580409 4.25730523,4.6925611 4.34555037,4.57176618 C4.43379552,4.45097127 4.42260806,4.268367 4.32056248,4.16390813 C3.85797509,3.69038096 3.26779922,3.42512909 2.64359627,3.42512909 Z M5.38739731,12.2906399 C5.43337939,12.5303864 5.50184526,12.7704827 5.59821626,12.9971269 C5.88409095,13.6694435 6.35506636,14.0879209 7.02801892,14.0879209 L14.4154309,14.0879209 C15.1867696,14.0879209 15.9853186,12.9524749 15.9853186,11.935483 C15.9853186,11.7757862 15.875953,11.6463264 15.7410438,11.6463264 C15.6061345,11.6463264 15.496769,11.7757862 15.496769,11.935483 C15.496769,12.6541243 14.8951152,13.5096076 14.4154309,13.5096076 L7.02801892,13.5096076 C6.55931774,13.5096076 6.2439069,13.2293546 6.0346048,12.7371204 C5.95766392,12.5561718 5.90159852,12.3595615 5.86382267,12.1626015 C5.85059055,12.0936104 5.84064955,12.0298389 5.83356204,11.9731864 C5.82950121,11.9407269 5.82736268,11.9190003 5.82667805,11.9098826 C5.81473389,11.7508129 5.69611515,11.6333232 5.56173568,11.6474619 C5.4273562,11.6616006 5.32810277,11.8020137 5.34004693,11.9610834 C5.34533511,12.0315103 5.35966236,12.1460323 5.38739731,12.2906399 Z" id="Rectangle-86" sketch:type="MSShapeGroup"></path>
        </g>
    </g>
</svg>