<?xml version="1.0" encoding="UTF-8" standalone="no"?>
<svg width="16px" height="15px" viewBox="0 0 16 15" version="1.1" xmlns="http://www.w3.org/2000/svg" xmlns:xlink="http://www.w3.org/1999/xlink" xmlns:sketch="http://www.bohemiancoding.com/sketch/ns">
    <!-- Generator: Sketch 3.0.2 (7799) - http://www.bohemiancoding.com/sketch -->
    <title>Fill 21</title>
    <description>Created with Sketch.</description>
    <defs></defs>
    <g id="Page-1" stroke="none" stroke-width="1" fill="none" fill-rule="evenodd" sketch:type="MSPage">
        <g id="Artboard-1" sketch:type="MSArtboardGroup" transform="translate(0.000000, -1.000000)" fill="#F9F9F9">
            <path d="M9.35594474,1 C3.23564844,1 2.0635003,7.93272727 1.59653733,9.18454545 C1.59653733,9.18454545 5.16512993,13.8290909 10.0433521,13.2413636 C10.0125373,13.1009091 9.99712993,12.9522727 9.99712993,12.7968182 C9.99712993,11.7631818 10.682167,10.9286364 11.5319447,10.9286364 C12.2217225,10.9286364 12.8024633,11.4836364 12.9956484,12.2472727 C13.9710559,11.7031818 14.9784633,10.9122727 15.9989077,9.81590909 C15.9989077,9.81454545 15.476241,1 9.35594474,1 L9.35594474,1 Z M4.78112993,6.01409091 C4.42557437,5.59681818 6.37875956,3.325 7.52483363,2.61454545 C8.87594474,1.77727273 11.4300188,2.19863636 11.2676484,2.53545455 C11.1052781,2.87909091 9.04068548,2.575 7.55683363,3.44227273 C6.07061141,4.315 5.1355003,6.43 4.78112993,6.01409091 L4.78112993,6.01409091 Z M12.6886855,3.59636364 C12.5251299,3.93454545 10.4593521,3.63318182 8.9755003,4.50454545 C7.48927807,5.37181818 6.55416696,7.48818182 6.19979659,7.07363636 C5.84542622,6.65772727 7.79742622,4.38045455 8.94587067,3.67 C10.2957966,2.83545455 12.8498707,3.25545455 12.6886855,3.59636364 L12.6886855,3.59636364 Z M1.32631511,9.86909091 C1.32631511,9.86909091 -0.353092296,11.3445455 0.0676484446,11.9472727 C0.487204,12.5527273 6.52216696,20.755 15.6883892,11.9472727 C15.6883892,11.9472727 7.42764844,18.1845455 1.32631511,9.86909091 L1.32631511,9.86909091 Z" id="Fill-21" sketch:type="MSShapeGroup"></path>
        </g>
    </g>
</svg>