<?xml version="1.0" encoding="UTF-8" standalone="no"?>
<svg width="24px" height="24px" viewBox="0 0 24 24" version="1.1" xmlns="http://www.w3.org/2000/svg" xmlns:xlink="http://www.w3.org/1999/xlink" xmlns:sketch="http://www.bohemiancoding.com/sketch/ns">
    <!-- Generator: Sketch 3.0.2 (7799) - http://www.bohemiancoding.com/sketch -->
    <title>Artboard 1</title>
    <description>Created with Sketch.</description>
    <defs></defs>
    <g id="Page-1" stroke="none" stroke-width="1" fill="none" fill-rule="evenodd" sketch:type="MSPage">
        <g id="Artboard-1" sketch:type="MSArtboardGroup" fill="#58595B">
            <path d="M10.4377721,19.2837 C10.4366949,19.2813482 10.4356226,19.2789936 10.4345554,19.2766362 C9.30408811,19.7562284 7.81050106,21.1504713 6.85131672,21.1504713 C5.13848754,21.1504713 5.13848754,18.5743763 5.13848754,18.5743763 C5.13848754,18.5743763 5.13848754,17.4227008 5.65048331,16.6594332 L5.31319612,16.6594332 C3.24238564,16.6611461 0,24.0143217 0,24.0143217 L23.9796085,24.0143217 C23.9796085,24.0143217 20.8245772,16.6611461 18.7520539,16.6611461 L18.3302729,16.6611461 L18.3302729,16.6611461 C18.841121,17.4244225 18.841121,18.5743763 18.841121,18.5743763 C18.841121,18.5743763 18.841121,21.1504713 17.1282918,21.1504713 C16.1656818,21.1504713 14.6755204,19.7528027 13.546766,19.2766362 C13.5352578,19.3018964 13.5231776,19.3268384 13.5105422,19.3514442 C13.2318705,19.9224219 12.655659,20.3146107 11.9898043,20.3146107 C11.2979294,20.3146107 10.7028407,19.8911712 10.4377721,19.2837 Z M10.5001811,17.7369928 C10.4753332,17.7808987 10.4522825,17.8259769 10.4311297,17.8721163 C9.82236226,17.6149167 9.1066522,17.0888613 8.42598183,16.6594332 L10.3163702,16.6594332 C8.28666758,15.7310798 6.71600322,13.3057137 6.22442124,10.9591377 C6.16961071,10.965989 6.11822583,10.9933943 6.05998964,10.9933943 C5.2361188,10.9933943 5.35944251,10.3202524 5.35944251,9.48953028 L5.35944251,7.98395343 C5.35944251,7.15323128 5.2361188,6.48008941 6.05998964,6.48008941 C6.13192847,6.48008941 6.19187749,6.51092034 6.25867783,6.52119731 C6.26381631,6.50749468 6.2689548,6.49379205 6.27238046,6.48008941 L6.24840085,6.48008941 C6.24840085,6.48008941 6.67146966,4.36474538 6.80849599,3.47064854 C6.94894799,2.57826454 7.32234475,2.95508696 7.88757838,1.68588054 C8.45109918,0.416674115 7.72143395,-0.151985173 8.5641459,0.0347132074 C9.40685786,0.223124417 10.9329887,0.538284986 12.0583174,0.649618883 C12.524207,0.6975781 14.2130565,0.649618883 15.0557685,1.16860612 C15.893342,1.68588054 16.2718772,2.10723652 16.5562069,1.96678452 C16.8405365,1.82804536 17.2601797,3.00304618 17.4503037,3.75497819 C17.6301508,4.49834605 17.8613827,6.47495093 17.868234,6.51948448 C17.9316087,6.51092034 17.9881321,6.48180224 18.0549324,6.48180224 C18.8805161,6.48180224 18.7554795,7.15494411 18.7554795,7.98566626 L18.7554795,9.49124311 C18.7554795,10.3219653 18.8805161,10.9951071 18.0549324,10.9951071 C17.9949834,10.9951071 17.9453113,10.9677019 17.8870751,10.9608506 C17.3989188,13.3074265 15.8282545,15.7327926 13.796839,16.6611461 L15.5484359,16.6611461 L15.5484359,16.6611461 C14.8690412,17.0898879 14.15537,17.6144524 13.546766,17.8721163 C13.5339775,17.8440459 13.520494,17.8163683 13.5063369,17.7891086 C13.2261021,17.2232753 12.6523274,16.8358546 11.9898043,16.8358546 C11.3478249,16.8358546 10.7891753,17.1996212 10.5001811,17.7369928 Z" id="Fill-32" sketch:type="MSShapeGroup"></path>
        </g>
    </g>
</svg>