<?xml version="1.0" encoding="UTF-8" standalone="no"?>
<svg width="24px" height="24px" viewBox="0 0 24 24" version="1.1" xmlns="http://www.w3.org/2000/svg" xmlns:xlink="http://www.w3.org/1999/xlink" xmlns:sketch="http://www.bohemiancoding.com/sketch/ns">
    <!-- Generator: Sketch 3.0.2 (7799) - http://www.bohemiancoding.com/sketch -->
    <title>Artboard 1</title>
    <description>Created with Sketch.</description>
    <defs></defs>
    <g id="Page-1" stroke="none" stroke-width="1" fill="none" fill-rule="evenodd" sketch:type="MSPage">
        <g id="Artboard-1" sketch:type="MSArtboardGroup" fill="#58595B">
            <path d="M15.1409669,7.88037767 L15.1409669,5.57142857 L17.1562341,5.57142857 L17.1562341,7.7227885 C20.509872,7.83908101 22.9792903,11.2912629 22.9792899,13.4648538 C22.9792895,15.6758855 21.2477779,19.0485558 16.1584407,19.0485558 C11.0691034,19.0485558 10.0564604,13.2661998 9.13828324,12.94937 C8.22010603,12.6325402 5.01435679,11.5085991 3.9755924,11.5085991 C2.936828,11.5085991 3.36174458,10.1669434 2.83699507,10.1669434 C2.31224556,10.1669434 1.52538963,8.92482654 2.95228638,8.92482654 C4.37918313,8.92482654 8.9180423,8.92482654 11.1372694,8.92482654 C11.9121211,8.37824874 13.7797435,8.05272755 15.1409669,7.88037767 L15.1409669,7.88037767 Z M17.1501511,9.50236325 L17.1501511,12.0115876 C17.1501511,12.732079 18.1837269,13.5580391 18.9916945,13.5580391 C19.7996621,13.5580391 21.1901678,12.7382207 21.1901678,11.4961038 C21.1901678,10.2539869 18.849996,8.7323143 18.3463581,8.7323143 C17.8427203,8.7323143 17.1501511,8.87505715 17.1501511,9.50236325 Z M9.26603197,3.28539623 C8.76693721,3.23043847 8.36234097,3.58086372 8.36234097,4.09322205 L8.36234097,4.23035798 C8.36234097,4.73146562 8.76383585,5.09348307 9.26603197,5.03818381 L15.3365126,4.36973358 C15.8356073,4.31477582 16.2402036,4.05335628 16.2402036,4.05335628 L16.2402036,4.27022375 C16.2402036,4.15045116 15.8387087,4.00914572 15.3365126,3.95384646 L9.26603197,3.28539623 Z M23.2143751,3.28539623 C23.7134699,3.23043847 24.1180662,3.58086372 24.1180662,4.09322205 L24.1180662,4.23035798 C24.1180662,4.73146562 23.7165713,5.09348307 23.2143751,5.03818381 L17.1438946,4.36973358 C16.6447998,4.31477582 16.2402036,4.05335628 16.2402036,4.05335628 L16.2402036,4.27022375 C16.2402036,4.15045116 16.6416984,4.00914572 17.1438946,3.95384646 L23.2143751,3.28539623 Z M3.9653944,5.13769363 C1.84057369,5.13769363 0.118066158,7.17668598 0.118066158,9.6919105 C0.118066158,12.207135 1.84057369,14.2461274 3.9653944,14.2461274 C4.16775828,14.2461274 4.33180662,14.0519376 4.33180662,13.8123924 C4.33180662,13.5728472 4.16775828,13.3786575 3.9653944,13.3786575 C2.24530144,13.3786575 0.850890585,11.7280446 0.850890585,9.6919105 C0.850890585,7.65577636 2.24530144,6.00516351 3.9653944,6.00516351 C4.72397696,6.00516351 5.43953973,6.32676996 6.0014978,6.90201784 C6.15456617,7.05870613 6.38595784,7.03884165 6.51832556,6.85764928 C6.65069328,6.6764569 6.63391209,6.4025505 6.48084373,6.2458622 C5.78696263,5.53557144 4.90169884,5.13769363 3.9653944,5.13769363 Z M8.08109596,18.4359598 C8.15006908,18.7955796 8.25276789,19.155724 8.39732439,19.4956903 C8.82613643,20.5041652 9.53259954,21.1318813 10.5420284,21.1318813 L21.6231464,21.1318813 C22.7801543,21.1318813 23.9779779,19.4287124 23.9779779,17.9032245 C23.9779779,17.6636793 23.8139296,17.4694896 23.6115657,17.4694896 C23.4092018,17.4694896 23.2451535,17.6636793 23.2451535,17.9032245 C23.2451535,18.9811865 22.3426728,20.2644114 21.6231464,20.2644114 L10.5420284,20.2644114 C9.83897661,20.2644114 9.36586035,19.8440318 9.0519072,19.1056806 C8.93649588,18.8342577 8.85239778,18.5393423 8.79573401,18.2439023 C8.77588582,18.1404156 8.76097432,18.0447583 8.75034306,17.9597795 C8.74425182,17.9110904 8.74104402,17.8785005 8.74001708,17.8648239 C8.72210084,17.6262194 8.54417273,17.4499847 8.34260352,17.4711928 C8.1410343,17.4924009 7.99215415,17.7030206 8.01007039,17.9416251 C8.01800267,18.0472655 8.03949355,18.2190484 8.08109596,18.4359598 Z" id="Rectangle-86" sketch:type="MSShapeGroup"></path>
        </g>
    </g>
</svg>