<?xml version="1.0" encoding="UTF-8" standalone="no"?>
<svg width="32px" height="32px" viewBox="0 0 32 32" version="1.1" xmlns="http://www.w3.org/2000/svg" xmlns:xlink="http://www.w3.org/1999/xlink" xmlns:sketch="http://www.bohemiancoding.com/sketch/ns">
    <!-- Generator: Sketch 3.0.3 (7891) - http://www.bohemiancoding.com/sketch -->
    <title>Artboard 18</title>
    <desc>Created with Sketch.</desc>
    <defs></defs>
    <g id="Page-1" stroke="none" stroke-width="1" fill="none" fill-rule="evenodd" sketch:type="MSPage">
        <g id="Artboard-18" sketch:type="MSArtboardGroup">
            <path d="M18.623,4 C18.623,4 18.7606811,3.29669189 19.023,3 L-1.16851879e-08,3 L-1.16851879e-08,27 L10.5123149,26.9999995 L14.9838867,32 L19.562,27 L30.0092773,27 L30.0092773,12.9770508 C29.741848,13.18396 29.0092773,13.3780508 29.0092773,13.3780508 L29.0092773,26 L19.049,26.002 L14.9748867,30.461 L11.0103149,26.0009995 L1.03309463,26.0009995 L1.03309463,4 L18.623,4 Z M27.0517578,14 L3,14 L3,17 L27.0517578,17 L27.0517578,14 Z M27.0517578,20 L3,20 L3,23 L27.0517578,23 L27.0517578,20 Z M18.5930176,8 C18.7774048,9 19.3386514,10 19.9676514,11 L3,11 L3,8 L18.5930176,8 Z" id="Fill-14" fill="#58595B" sketch:type="MSShapeGroup"></path>
            <path d="M30.210125,4.378875 C30.169625,4.273125 30.12425,4.1701875 30.07625,4.0685625 C30.023,3.846 30.0119375,3.4344375 30.447875,2.998125 C30.8511875,2.5948125 30.7859375,2.300625 30.5015,2.0161875 L29.975375,1.4900625 C29.6909375,1.205625 29.402375,1.135125 28.9990625,1.5384375 C28.503875,2.0338125 28.043,1.95 27.8525,1.884375 C27.741875,1.834875 27.6295625,1.788375 27.51425,1.7476875 C27.31925,1.62525 27.0284375,1.341 27.02825,0.7329375 C27.02825,0.162375 26.774375,0 26.3718125,0 L25.6278125,0 C25.2254375,0 24.97175,0.154875 24.97175,0.72525 C24.97175,1.3933125 24.62075,1.6670625 24.4315625,1.7675625 C24.3550625,1.796625 24.292625,1.821375 24.2309375,1.8478125 C24.1994375,1.8613125 24.1683125,1.8755625 24.1371875,1.8898125 C24.1128125,1.900875 24.0880625,1.9108125 24.063875,1.9224375 C23.8394375,1.9738125 23.4329375,1.9785 23.0028125,1.548375 C22.5993125,1.1450625 22.3049375,1.20975 22.0203125,1.494375 L21.4941875,2.0205 C21.20975,2.3049375 21.1398125,2.5940625 21.5429375,2.997375 C22.0154375,3.4696875 21.960875,3.9114375 21.8980625,4.116375 C21.843125,4.2358125 21.795125,4.3575 21.7510625,4.4803125 C21.6280625,4.6753125 21.34325,4.9655625 20.735,4.96575 C20.164625,4.96575 20,5.2198125 20,5.6221875 L20,6.366375 C20,6.76875 20.157875,7.0224375 20.72825,7.0224375 C21.3888125,7.02225 21.663875,7.3644375 21.767375,7.5553125 C21.81275,7.67775 21.86225,7.7990625 21.918875,7.9179375 C21.972125,8.1403125 21.9828125,8.5543125 21.54575,8.99175 C21.1424375,9.394875 21.205625,9.6909375 21.49025,9.9755625 L22.016375,10.5016875 C22.3008125,10.786125 22.592,10.854 22.9953125,10.4506875 C23.472875,9.9729375 23.9200625,10.033125 24.1221875,10.0966875 C24.161375,10.1146875 24.2015,10.130625 24.24125,10.1475 C24.331625,10.18575 24.4075625,10.215375 24.4840625,10.2429375 C24.67925,10.36575 24.9715625,10.652625 24.97175,11.26275 C24.97175,11.833125 25.225625,12 25.6281875,12 L26.3721875,12 C26.7745625,11.9998125 27.02825,11.839125 27.02825,11.2689375 C27.02825,10.604625 27.3749375,10.3276875 27.56525,10.2255 C27.60125,10.2121875 27.6363125,10.197 27.6719375,10.1829375 C27.685625,10.1773125 27.6993125,10.1720625 27.7131875,10.1664375 C27.7855625,10.1368125 27.8568125,10.1053125 27.9273125,10.0723125 C28.152125,10.0209375 28.5621875,10.016625 28.9941875,10.4484375 C29.3975,10.85175 29.6950625,10.79025 29.9796875,10.505625 L30.24275,10.242375 L30.5058125,9.9795 C30.79025,9.694875 30.8560625,9.4018125 30.45275,8.9985 C29.988125,8.533875 30.0314375,8.09775 30.09275,7.8883125 C30.1278125,7.811625 30.1608125,7.734 30.1915625,7.6550625 C30.2095625,7.6089375 30.22625,7.5691875 30.240875,7.528125 C30.356375,7.3335 30.6389375,7.022625 31.267625,7.0224375 C31.838,7.0224375 32,6.7685625 32,6.366 L32,5.6218125 C32,5.219625 31.8456875,4.96575 31.2753125,4.96575 C30.5478125,4.9659375 30.2875625,4.5495 30.210125,4.378875 Z M26,8.4375 C24.65375,8.4375 23.5625,7.34625 23.5625,6 C23.5625,4.65375 24.65375,3.5625 26,3.5625 C27.34625,3.5625 28.4375,4.65375 28.4375,6 C28.4375,7.34625 27.34625,8.4375 26,8.4375 L26,8.4375 L26,8.4375 Z" id="Page-1" fill="#BCBCBC" sketch:type="MSShapeGroup"></path>
        </g>
    </g>
</svg>