<?xml version="1.0" encoding="UTF-8" standalone="no"?>
<svg width="32px" height="32px" viewBox="0 0 32 32" version="1.1" xmlns="http://www.w3.org/2000/svg" xmlns:xlink="http://www.w3.org/1999/xlink" xmlns:sketch="http://www.bohemiancoding.com/sketch/ns">
    <!-- Generator: Sketch 3.0.2 (7799) - http://www.bohemiancoding.com/sketch -->
    <title>Artboard 1</title>
    <description>Created with Sketch.</description>
    <defs></defs>
    <g id="Page-1" stroke="none" stroke-width="1" fill="none" fill-rule="evenodd" sketch:type="MSPage">
        <g id="Artboard-1" sketch:type="MSArtboardGroup">
            <path d="M18.623,4 C18.729,4 18.865,3 19.023,3 L-1.16851879e-08,3 L-1.16851879e-08,27 L8.83,27 L14.197,32 L19.562,27 L28.719,27 L28.719,12.695 C28.719,12.853 27.719,12.99 27.719,13.096 L27.719,26 L19.049,26.002 L14.188,30.461 L9.328,26.001 L1.03309466,26.0009995 L1.03309463,4 L18.623,4 Z M26,14 L3,14 L3,17 L26,17 L26,14 L26,14 Z M26,21 L3,21 L3,24 L26,24 L26,21 L26,21 Z M18.402,8 C18.565,9 18.988,10 19.617,11 L3,11 L3,8 L18.402,8 L18.402,8 Z" id="Fill-13" fill="#58595B" sketch:type="MSShapeGroup"></path>
            <path d="M26,0 C29.313,0 32,2.686 32,6 C32,9.314 29.313,12 26,12 C22.686,12 20,9.314 20,6 C20,2.686 22.686,0 26,0" id="Fill-48" fill="#BCBCBC" sketch:type="MSShapeGroup"></path>
            <path d="M25,2 L27,2 L27,5 L30,5 L30,7 L27,7 L27,10 L25,10 L25,7 L22,7 L22,5 L25,5 L25,2 L25,2 Z" id="Fill-47" fill="#FFFFFF" sketch:type="MSShapeGroup"></path>
        </g>
    </g>
</svg>