<?xml version="1.0" encoding="UTF-8" standalone="no"?>
<svg width="16px" height="16px" viewBox="0 0 16 16" version="1.1" xmlns="http://www.w3.org/2000/svg" xmlns:xlink="http://www.w3.org/1999/xlink" xmlns:sketch="http://www.bohemiancoding.com/sketch/ns">
    <!-- Generator: Sketch 3.0.2 (7799) - http://www.bohemiancoding.com/sketch -->
    <title>Artboard 1</title>
    <description>Created with Sketch.</description>
    <defs></defs>
    <g id="Page-1" stroke="none" stroke-width="1" fill="none" fill-rule="evenodd" sketch:type="MSPage">
        <g id="Artboard-1" sketch:type="MSArtboardGroup" fill="#F9F9F9">
            <path d="M9.1126952,11.1304622 C8.2051924,11.6822322 7.13970552,12 6,12 C2.68629149,12 0,9.3137085 0,6.00000001 C0,2.68629151 2.68629149,0 6,0 C8.30870239,0 10.3128513,1.30394853 11.3161556,3.21555449 C11.7529062,4.04769969 12,4.99499392 12,6.00000001 C12,7.26917153 11.6059374,8.44630481 10.9334896,9.41572261 L15.4309825,13.9132155 C15.9177697,14.4000028 15.9201359,15.1938252 15.4319805,15.6819805 C14.9404218,16.1735392 14.1519221,16.169689 13.6632155,15.6809825 L9.1126952,11.1304622 L9.1126952,11.1304622 L9.1126952,11.1304622 Z M10,6 C10,3.790861 8.209139,2 6,2 C3.790861,2 2,3.790861 2,6 C2,8.209139 3.790861,10 6,10 C8.209139,10 10,8.209139 10,6 Z M10.8054564,10.3054564 C10.7078253,10.4030874 10.7099088,10.5634622 10.8058915,10.6594449 L14.3405551,14.1941085 C14.4384265,14.2919799 14.5997679,14.2893194 14.6945436,14.1945436 L14.6945436,14.1945436 C14.7921747,14.0969126 14.7900912,13.9365378 14.6941085,13.8405551 L11.1594449,10.3058915 C11.0615735,10.2080201 10.9002321,10.2106806 10.8054564,10.3054564 L10.8054564,10.3054564 Z" id="Path-9" sketch:type="MSShapeGroup"></path>
        </g>
    </g>
</svg>