<?xml version="1.0" encoding="UTF-8" standalone="no"?>
<svg width="28px" height="28px" viewBox="0 0 28 28" version="1.1" xmlns="http://www.w3.org/2000/svg" xmlns:xlink="http://www.w3.org/1999/xlink" xmlns:sketch="http://www.bohemiancoding.com/sketch/ns">
    <!-- Generator: Sketch 3.0.2 (7799) - http://www.bohemiancoding.com/sketch -->
    <title>Artboard 1</title>
    <description>Created with Sketch.</description>
    <defs></defs>
    <g id="Page-1" stroke="none" stroke-width="1" fill="none" fill-rule="evenodd" sketch:type="MSPage">
        <g id="Artboard-1" sketch:type="MSArtboardGroup" fill="#005c83">
            <path d="M15.9472166,19.4783088 C14.3590867,20.4439064 12.4944847,21 10.5,21 C4.70101011,21 0,16.2989899 0,10.5 C0,4.70101014 4.70101011,0 10.5,0 C14.5402292,0 18.0474898,2.28190992 19.8032724,5.62722035 C20.5675858,7.08347445 21,8.74123936 21,10.5 C21,12.7210502 20.3103905,14.7810334 19.1336067,16.4775146 L27.0042193,24.3481272 C27.856097,25.2000049 27.8602378,26.589194 27.0059659,27.4434659 C26.1457382,28.3036936 24.7658637,28.2969558 23.9106272,27.4417193 L15.9472166,19.4783088 L15.9472166,19.4783088 L15.9472166,19.4783088 Z M17.5,10.5 C17.5,6.63400675 14.3659932,3.5 10.5,3.5 C6.63400675,3.5 3.5,6.63400675 3.5,10.5 C3.5,14.3659932 6.63400675,17.5 10.5,17.5 C14.3659932,17.5 17.5,14.3659932 17.5,10.5 Z M18.9095486,18.0345486 C18.7386942,18.205403 18.7423404,18.4860588 18.9103102,18.6540286 L25.0959714,24.8396898 C25.2672464,25.0109648 25.5495938,25.006309 25.7154514,24.8404514 L25.7154514,24.8404514 C25.8863058,24.669597 25.8826596,24.3889412 25.7146898,24.2209714 L19.5290286,18.0353102 C19.3577536,17.8640352 19.0754062,17.868691 18.9095486,18.0345486 L18.9095486,18.0345486 Z" id="Path-9" sketch:type="MSShapeGroup"></path>
        </g>
    </g>
</svg>