<?xml version="1.0" encoding="UTF-8" standalone="no"?>
<svg width="32px" height="32px" viewBox="0 0 32 32" version="1.1" xmlns="http://www.w3.org/2000/svg" xmlns:xlink="http://www.w3.org/1999/xlink" xmlns:sketch="http://www.bohemiancoding.com/sketch/ns">
    <!-- Generator: Sketch 3.0.3 (7891) - http://www.bohemiancoding.com/sketch -->
    <title>Artboard 2</title>
    <desc>Created with Sketch.</desc>
    <defs></defs>
    <g id="Page-1" stroke="none" stroke-width="1" fill="none" fill-rule="evenodd" sketch:type="MSPage">
        <g id="Artboard-2" sketch:type="MSArtboardGroup">
            <path d="M18.623,4 C18.623,4 18.7606811,3.29669189 19.023,3 L-1.16851879e-08,3 L-1.16851879e-08,27 L10.5123149,26.9999995 L14.9838867,32 L19.562,27 L30.0092773,27 L30.0092773,12.9770508 C29.741848,13.18396 29.0092773,13.3780508 29.0092773,13.3780508 L29.0092773,26 L19.049,26.002 L14.9748867,30.461 L11.0103149,26.0009995 L1.03309463,26.0009995 L1.03309463,4 L18.623,4 Z M27.0517578,14 L3,14 L3,17 L27.0517578,17 L27.0517578,14 Z M27.0517578,20 L3,20 L3,23 L27.0517578,23 L27.0517578,20 Z M18.5930176,8 C18.7774048,9 19.3386514,10 19.9676514,11 L3,11 L3,8 L18.5930176,8 Z" id="Fill-13" fill="#005C83" sketch:type="MSShapeGroup"></path>
            <path d="M26,0 C29.313,0 32,2.686 32,6 C32,9.314 29.313,12 26,12 C22.686,12 20,9.314 20,6 C20,2.686 22.686,0 26,0 Z M25,2 L27,2 L27,5 L30,5 L30,7 L27,7 L27,10 L25,10 L25,7 L22,7 L22,5 L25,5 L25,2 Z" id="Fill-48" fill="#BCBCBC" sketch:type="MSShapeGroup"></path>
        </g>
    </g>
</svg>