<?xml version="1.0" encoding="UTF-8" standalone="no"?>
<svg width="20px" height="19px" viewBox="0 0 20 19" version="1.1" xmlns="http://www.w3.org/2000/svg" xmlns:xlink="http://www.w3.org/1999/xlink" xmlns:sketch="http://www.bohemiancoding.com/sketch/ns">
    <!-- Generator: Sketch 3.0.2 (7799) - http://www.bohemiancoding.com/sketch -->
    <title>Fill 21</title>
    <description>Created with Sketch.</description>
    <defs></defs>
    <g id="Page-1" stroke="none" stroke-width="1" fill="none" fill-rule="evenodd" sketch:type="MSPage">
        <g id="Artboard-1" sketch:type="MSArtboardGroup" transform="translate(0.000000, -1.000000)" fill="#58595B">
            <path d="M11.6949309,1 C4.04456056,1 2.57937537,9.78145455 1.99567167,11.3670909 C1.99567167,11.3670909 6.45641241,17.2501818 12.5541902,16.5057273 C12.5156717,16.3278182 12.4964124,16.1395455 12.4964124,15.9426364 C12.4964124,14.6333636 13.3527087,13.5762727 14.4149309,13.5762727 C15.2771531,13.5762727 16.0030791,14.2792727 16.2445606,15.2465455 C17.4638198,14.5573636 18.7230791,13.5555455 19.9986346,12.1668182 C19.9986346,12.1650909 19.3453013,1 11.6949309,1 L11.6949309,1 Z M5.97641241,7.35118182 C5.53196796,6.82263636 7.97344944,3.945 9.40604204,3.04509091 C11.0949309,1.98454545 14.2875235,2.51827273 14.0845606,2.94490909 C13.8815976,3.38018182 11.3008569,2.995 9.44604204,4.09354545 C7.58826426,5.199 6.41937537,7.878 5.97641241,7.35118182 L5.97641241,7.35118182 Z M15.8608569,4.28872727 C15.6564124,4.71709091 13.0741902,4.33536364 11.2193754,5.43909091 C9.36159759,6.53763636 8.1927087,9.21836364 7.74974574,8.69327273 C7.30678278,8.16645455 9.74678278,5.28190909 11.1823383,4.382 C12.8697457,3.32490909 16.0623383,3.85690909 15.8608569,4.28872727 L15.8608569,4.28872727 Z M1.65789389,12.2341818 C1.65789389,12.2341818 -0.44136537,14.1030909 0.0845605557,14.8665455 C0.609005,15.6334545 8.1527087,26.023 19.6104865,14.8665455 C19.6104865,14.8665455 9.28456056,22.7670909 1.65789389,12.2341818 L1.65789389,12.2341818 Z" id="Fill-21" sketch:type="MSShapeGroup"></path>
        </g>
    </g>
</svg>