<?xml version="1.0" encoding="UTF-8" standalone="no"?>
<svg width="20px" height="20px" viewBox="0 0 20 20" version="1.1" xmlns="http://www.w3.org/2000/svg" xmlns:xlink="http://www.w3.org/1999/xlink" xmlns:sketch="http://www.bohemiancoding.com/sketch/ns">
    <!-- Generator: Sketch 3.0.2 (7799) - http://www.bohemiancoding.com/sketch -->
    <title>Artboard 1</title>
    <description>Created with Sketch.</description>
    <defs></defs>
    <g id="Page-1" stroke="none" stroke-width="1" fill="none" fill-rule="evenodd" sketch:type="MSPage">
        <g id="Artboard-1" sketch:type="MSArtboardGroup" fill="#F9F9F9">
            <path d="M8.69814341,16.06975 C8.69724571,16.0677902 8.69635217,16.065828 8.69546281,16.0638635 C7.75340676,16.4635237 6.50875089,17.6253928 5.7094306,17.6253928 C4.28207295,17.6253928 4.28207295,15.4786469 4.28207295,15.4786469 C4.28207295,15.4786469 4.28207295,14.5189174 4.70873609,13.882861 L4.42766343,13.882861 C2.70198803,13.8842884 0,20.0119348 0,20.0119348 L19.9830071,20.0119348 C19.9830071,20.0119348 17.3538143,13.8842884 15.6267116,13.8842884 L15.2752274,13.8842884 L15.2752274,13.8842884 C15.7009342,14.5203521 15.7009342,15.4786469 15.7009342,15.4786469 C15.7009342,15.4786469 15.7009342,17.6253928 14.2735765,17.6253928 C13.4714015,17.6253928 12.2296003,16.4606689 11.2889717,16.0638635 C11.2793815,16.0849136 11.2693147,16.1056987 11.2587852,16.1262035 C11.0265588,16.6020183 10.5463825,16.9288423 9.99150355,16.9288423 C9.41494115,16.9288423 8.91903388,16.575976 8.69814341,16.06975 Z M8.7501509,14.7808273 C8.72944432,14.8174156 8.71023538,14.8549807 8.69260809,14.8934302 C8.18530188,14.6790972 7.58887683,14.2407178 7.02165152,13.882861 L8.59697513,13.882861 C6.90555631,13.1092332 5.59666935,11.0880947 5.1870177,9.13261477 C5.14134226,9.1383242 5.09852153,9.16116192 5.04999137,9.16116192 C4.36343234,9.16116192 4.46620209,8.60021036 4.46620209,7.9079419 L4.46620209,6.65329453 C4.46620209,5.96102607 4.36343234,5.40007451 5.04999137,5.40007451 C5.10994039,5.40007451 5.15989791,5.42576695 5.21556485,5.4343311 C5.21984693,5.42291223 5.224129,5.41149337 5.22698372,5.40007451 L5.20700071,5.40007451 C5.20700071,5.40007451 5.55955805,3.63728781 5.67374666,2.89220712 C5.79078999,2.14855378 6.10195396,2.46257247 6.57298198,1.40490045 C7.04258265,0.347228429 6.43452829,-0.126654311 7.13678825,0.0289276728 C7.83904822,0.185937014 9.11082388,0.448570822 10.0485979,0.541349069 C10.4368391,0.581315084 11.8442138,0.541349069 12.5464737,0.973838437 C13.2444516,1.40490045 13.5598977,1.75603043 13.796839,1.6389871 C14.0337804,1.52337113 14.383483,2.50253848 14.5419197,3.12914849 C14.6917923,3.74862171 14.8844856,5.39579244 14.890195,5.43290374 C14.9430072,5.42576695 14.99011,5.40150187 15.045777,5.40150187 C15.7337634,5.40150187 15.6295663,5.96245343 15.6295663,6.65472189 L15.6295663,7.90936926 C15.6295663,8.60163772 15.7337634,9.16258928 15.045777,9.16258928 C14.9958195,9.16258928 14.9544261,9.13975156 14.9058959,9.13404213 C14.499099,11.0895221 13.190212,13.1106605 11.4973659,13.8842884 L12.9570299,13.8842884 L12.9570299,13.8842884 C12.3908677,14.2415732 11.7961417,14.6787103 11.2889717,14.8934302 C11.2783146,14.8700383 11.2670784,14.8469736 11.2552808,14.8242571 C11.0217518,14.3527294 10.5436061,14.0298789 9.99150355,14.0298789 C9.45652075,14.0298789 8.99097945,14.3330177 8.7501509,14.7808273 Z" id="Fill-32" sketch:type="MSShapeGroup"></path>
        </g>
    </g>
</svg>