<?xml version="1.0" encoding="UTF-8" standalone="no"?>
<svg width="20px" height="20px" viewBox="0 0 20 20" version="1.1" xmlns="http://www.w3.org/2000/svg" xmlns:xlink="http://www.w3.org/1999/xlink" xmlns:sketch="http://www.bohemiancoding.com/sketch/ns">
    <!-- Generator: Sketch 3.0.2 (7799) - http://www.bohemiancoding.com/sketch -->
    <title>Artboard 1</title>
    <description>Created with Sketch.</description>
    <defs></defs>
    <g id="Page-1" stroke="none" stroke-width="1" fill="none" fill-rule="evenodd" sketch:type="MSPage">
        <g id="Artboard-1" sketch:type="MSArtboardGroup" fill="#58595B">
            <path d="M13.533503,3.8777969 C13.533503,3.8777969 13.1963394,4.09564652 12.7804271,4.14144465 L7.72169331,4.69848651 C7.30319654,4.74456923 6.96861747,4.44288802 6.96861747,4.02529832 L6.96861747,3.91101838 C6.96861747,3.49984543 7.30578101,3.19203206 7.72169331,3.23783019 L12.7804271,3.79487205 C13.1989239,3.84095477 13.533503,3.9587093 13.533503,4.05851979 L13.533503,3.8777969 C13.5348879,3.87869082 13.8715205,4.09574055 14.2865788,4.14144465 L19.3453126,4.69848651 C19.7638094,4.74456923 20.0983885,4.44288802 20.0983885,4.02529832 L20.0983885,3.91101838 C20.0983885,3.49984543 19.7612249,3.19203206 19.3453126,3.23783019 L14.2865788,3.79487205 C13.868082,3.84095477 13.533503,3.9587093 13.533503,4.05851979 L13.533503,3.8777969 C13.533503,3.8777969 13.5335044,3.87779782 13.5335072,3.87779965 L13.533503,3.8777969 Z M12.6174724,7.06698139 L12.6174724,5.14285714 L14.2968617,5.14285714 L14.2968617,6.93565708 C17.09156,7.0325675 19.1494086,9.90938579 19.1494083,11.7207115 C19.1494079,13.5632379 17.7064816,16.3737965 13.4653672,16.3737965 C9.22425285,16.3737965 8.38038371,11.5551665 7.61523603,11.2911417 C6.85008835,11.0271168 4.17863066,10.0904993 3.31299367,10.0904993 C2.44735667,10.0904993 2.80145382,8.97245287 2.36416256,8.97245287 C1.9268713,8.97245287 1.27115803,7.93735545 2.46023865,7.93735545 C3.64931927,7.93735545 7.43170192,7.93735545 9.28105784,7.93735545 C9.92676762,7.48187395 11.4831196,7.21060629 12.6174724,7.06698139 L12.6174724,7.06698139 Z M14.2917926,8.41863604 L14.2917926,10.5096564 C14.2917926,11.1100658 15.1531058,11.7983659 15.8264121,11.7983659 C16.4997184,11.7983659 17.6584731,11.115184 17.6584731,10.0800865 C17.6584731,9.04498911 15.70833,7.77692858 15.2886318,7.77692858 C14.8689336,7.77692858 14.2917926,7.89588096 14.2917926,8.41863604 Z M3.30449534,4.78141136 C1.5338114,4.78141136 0.0983884648,6.48057165 0.0983884648,8.57659208 C0.0983884648,10.6726125 1.5338114,12.3717728 3.30449534,12.3717728 C3.4731319,12.3717728 3.60983885,12.209948 3.60983885,12.010327 C3.60983885,11.810706 3.4731319,11.6488812 3.30449534,11.6488812 C1.87108453,11.6488812 0.709075488,10.2733705 0.709075488,8.57659208 C0.709075488,6.87981363 1.87108453,5.50430293 3.30449534,5.50430293 C3.93664747,5.50430293 4.53294978,5.7723083 5.00124817,6.25168153 C5.12880514,6.38225511 5.32163153,6.36570138 5.43193797,6.21470773 C5.5422444,6.06371408 5.52826008,5.83545875 5.4007031,5.70488517 C4.82246886,5.1129762 4.08474903,4.78141136 3.30449534,4.78141136 Z M6.73424664,15.8632998 C6.79172423,16.162983 6.87730658,16.4631034 6.99777033,16.7464086 C7.35511369,17.5868044 7.94383295,18.1099011 8.78502365,18.1099011 L18.0192886,18.1099011 C18.9834619,18.1099011 19.9816482,16.6905937 19.9816482,15.4193538 C19.9816482,15.2197328 19.8449413,15.057908 19.6763047,15.057908 C19.5076682,15.057908 19.3709612,15.2197328 19.3709612,15.4193538 C19.3709612,16.3176554 18.618894,17.3870095 18.0192886,17.3870095 L8.78502365,17.3870095 C8.19914717,17.3870095 7.80488362,17.0366932 7.543256,16.4214005 C7.4470799,16.1952147 7.37699815,15.9494519 7.32977834,15.7032519 C7.31323818,15.617013 7.30081193,15.5372986 7.29195255,15.4664829 C7.28687651,15.4259087 7.28420335,15.3987504 7.28334757,15.3873532 C7.26841737,15.1885161 7.12014394,15.0416539 6.9521696,15.0593273 C6.78419525,15.0770007 6.66012846,15.2525172 6.67505866,15.4513543 C6.68166889,15.5393879 6.69957795,15.6825403 6.73424664,15.8632998 Z" id="Rectangle-86" sketch:type="MSShapeGroup"></path>
        </g>
    </g>
</svg>