<?xml version="1.0" encoding="UTF-8" standalone="no"?>
<svg width="20px" height="20px" viewBox="0 0 20 20" version="1.1" xmlns="http://www.w3.org/2000/svg" xmlns:xlink="http://www.w3.org/1999/xlink" xmlns:sketch="http://www.bohemiancoding.com/sketch/ns">
    <!-- Generator: Sketch 3.0.2 (7799) - http://www.bohemiancoding.com/sketch -->
    <title>Artboard 1</title>
    <description>Created with Sketch.</description>
    <defs></defs>
    <g id="Page-1" stroke="none" stroke-width="1" fill="none" fill-rule="evenodd" sketch:type="MSPage">
        <g id="Artboard-1" sketch:type="MSArtboardGroup" fill="#58595B">
            <path d="M11.390869,13.9130777 C10.2564905,14.6027903 8.9246319,15 7.5,15 C3.35786437,15 0,11.6421356 0,7.50000002 C0,3.35786438 3.35786437,0 7.5,0 C10.385878,0 12.8910641,1.62993566 14.1451946,4.01944311 C14.6911327,5.05962461 15,6.2437424 15,7.50000002 C15,9.08646442 14.5074218,10.557881 13.6668619,11.7696533 L19.2887281,17.3915194 C19.8972122,18.0000035 19.9001699,18.9922814 19.2899756,19.6024756 C18.6755273,20.216924 17.6899026,20.2121113 17.0790194,19.6012281 L11.390869,13.9130777 L11.390869,13.9130777 L11.390869,13.9130777 Z M12.5,7.5 C12.5,4.73857625 10.2614237,2.5 7.5,2.5 C4.73857625,2.5 2.5,4.73857625 2.5,7.5 C2.5,10.2614237 4.73857625,12.5 7.5,12.5 C10.2614237,12.5 12.5,10.2614237 12.5,7.5 Z M13.5068204,12.8818204 C13.3847816,13.0038593 13.387386,13.2043277 13.5073644,13.3243061 L17.9256939,17.7426356 C18.0480331,17.8649749 18.2497098,17.8616493 18.3681796,17.7431796 L18.3681796,17.7431796 C18.4902184,17.6211407 18.487614,17.4206723 18.3676356,17.3006939 L13.9493061,12.8823644 C13.8269669,12.7600251 13.6252902,12.7633507 13.5068204,12.8818204 L13.5068204,12.8818204 Z" id="Path-9" sketch:type="MSShapeGroup"></path>
        </g>
    </g>
</svg>