<?xml version="1.0" encoding="UTF-8" standalone="no"?>
<svg width="32px" height="32px" viewBox="0 0 32 32" version="1.1" xmlns="http://www.w3.org/2000/svg" xmlns:xlink="http://www.w3.org/1999/xlink" xmlns:sketch="http://www.bohemiancoding.com/sketch/ns">
    <!-- Generator: Sketch 3.0.3 (7891) - http://www.bohemiancoding.com/sketch -->
    <title>Artboard 6</title>
    <desc>Created with Sketch.</desc>
    <defs></defs>
    <g id="Page-1" stroke="none" stroke-width="1" fill="none" fill-rule="evenodd" sketch:type="MSPage">
        <g id="Artboard-6" sketch:type="MSArtboardGroup" fill="#F9F9F9">
            <path d="M13.9170295,25.7116001 C13.9155931,25.7084643 13.9141635,25.7053248 13.9127405,25.7021816 C12.4054508,26.3416379 10.4140014,28.2006285 9.13508896,28.2006285 C6.85131672,28.2006285 6.85131672,24.765835 6.85131672,24.765835 C6.85131672,24.765835 6.85131672,23.2302678 7.53397775,22.2125776 L7.08426149,22.2125776 C4.32318085,22.2148614 0,32.0190956 0,32.0190956 L31.9728114,32.0190956 C31.9728114,32.0190956 27.7661029,22.2148614 25.0027385,22.2148614 L24.4403638,22.2148614 L24.4403638,22.2148614 C25.1214946,23.2325633 25.1214946,24.765835 25.1214946,24.765835 C25.1214946,24.765835 25.1214946,28.2006285 22.8377224,28.2006285 C21.5542424,28.2006285 19.5673606,26.3370703 18.0623547,25.7021816 C18.0470104,25.7358618 18.0309035,25.7691179 18.0140563,25.8019256 C17.642494,26.5632292 16.874212,27.0861476 15.9864057,27.0861476 C15.0639058,27.0861476 14.2704542,26.5215616 13.9170295,25.7116001 Z M14.0002414,23.6493237 C13.9671109,23.7078649 13.9363766,23.7679692 13.9081729,23.8294884 C13.096483,23.4865556 12.1422029,22.7851484 11.2346424,22.2125776 L13.7551602,22.2125776 C11.0488901,20.9747731 8.95467096,17.7409516 8.29922832,14.6121836 C8.22614761,14.6213187 8.15763444,14.6578591 8.07998619,14.6578591 C6.98149174,14.6578591 7.14592334,13.7603366 7.14592334,12.652707 L7.14592334,10.6452712 C7.14592334,9.53764171 6.98149174,8.64011922 8.07998619,8.64011922 C8.17590462,8.64011922 8.25583665,8.68122712 8.34490377,8.69492975 C8.35175508,8.67665957 8.3586064,8.6583894 8.36317395,8.64011922 L8.33120113,8.64011922 C8.33120113,8.64011922 8.89529288,5.8196605 9.07799466,4.62753139 C9.26526398,3.43768605 9.76312633,3.94011595 10.5167712,2.24784072 C11.2681322,0.555565486 10.2952453,-0.202646898 11.4188612,0.0462842765 C12.5424771,0.297499223 14.5773182,0.717713315 16.0777566,0.866158511 C16.6989426,0.930104134 18.9507421,0.866158511 20.074358,1.5581415 C21.1911226,2.24784072 21.6958363,2.80964869 22.0749425,2.62237936 C22.4540487,2.43739381 23.0135729,4.00406157 23.2670716,5.00663758 C23.5068677,5.99779474 23.8151769,8.6332679 23.824312,8.69264598 C23.9088116,8.68122712 23.9841761,8.64240299 24.0732432,8.64240299 C25.1740214,8.64240299 25.007306,9.53992548 25.007306,10.647555 L25.007306,12.6549908 C25.007306,13.7626204 25.1740214,14.6601428 24.0732432,14.6601428 C23.9933112,14.6601428 23.9270818,14.6236025 23.8494335,14.6144674 C23.1985584,17.7432354 21.1043393,20.9770569 18.3957854,22.2148614 L20.7312479,22.2148614 L20.7312479,22.2148614 C19.8253883,22.7865172 18.8738267,23.4859365 18.0623547,23.8294884 C18.0453033,23.7920612 18.0273254,23.7551578 18.0084492,23.7188114 C17.6348028,22.964367 16.8697698,22.4478062 15.9864057,22.4478062 C15.1304332,22.4478062 14.3855671,22.9328283 14.0002414,23.6493237 Z" id="Fill-46" sketch:type="MSShapeGroup"></path>
        </g>
    </g>
</svg>