<?xml version="1.0" encoding="UTF-8" standalone="no"?>
<svg width="38px" height="38px" viewBox="0 0 38 38" version="1.1" xmlns="http://www.w3.org/2000/svg" xmlns:xlink="http://www.w3.org/1999/xlink" xmlns:sketch="http://www.bohemiancoding.com/sketch/ns">
    <!-- Generator: Sketch 3.0.2 (7799) - http://www.bohemiancoding.com/sketch -->
    <title>Artboard 2</title>
    <description>Created with Sketch.</description>
    <defs></defs>
    <g id="Page-1" stroke="none" stroke-width="1" fill="none" fill-rule="evenodd" sketch:type="MSPage">
        <g id="Artboard-2" sketch:type="MSArtboardGroup" fill="#686868">
            <g id="Oval-18-+-Rectangle-8" sketch:type="MSLayerGroup" transform="translate(2.000000, 3.000000)">
                <path d="M12.2125326,24.4969036 C18.9573281,24.4969036 24.4250652,19.0130849 24.4250652,12.2484518 C24.4250652,5.48381866 18.9573281,0 12.2125326,0 C5.46773708,0 0,5.48381866 0,12.2484518 C0,19.0130849 5.46773708,24.4969036 12.2125326,24.4969036 Z M12.2125326,20.4140863 C16.7090629,20.4140863 20.354221,16.7582072 20.354221,12.2484518 C20.354221,7.73869637 16.7090629,4.08281726 12.2125326,4.08281726 C7.71600224,4.08281726 4.07084419,7.73869637 4.07084419,12.2484518 C4.07084419,16.7582072 7.71600224,20.4140863 12.2125326,20.4140863 Z" id="Oval-18" sketch:type="MSShapeGroup"></path>
                <path d="M19.0062465,18.2651134 C17.8934121,19.3779479 17.893639,21.182436 19.0082495,22.2970465 L28.2544572,31.5432543 C29.3683979,32.6571949 31.1758202,32.6558273 32.2863903,31.5452572 C33.3992248,30.4324227 33.3989978,28.6279346 32.2843874,27.5133241 L23.0381796,18.2671164 C21.9242389,17.1531757 20.1168166,17.1545433 19.0062465,18.2651134 Z M31.4878618,29.0199895 L22.9374619,20.4695896 L22.7003165,20.2324442 L22.1246122,20.8081485 L22.3617576,21.045294 L30.9121575,29.5956938 L31.1493029,29.8328392 L31.7250072,29.2571349 L31.4878618,29.0199895 Z" id="Rectangle-8" sketch:type="MSShapeGroup"></path>
            </g>
        </g>
    </g>
</svg>